<svg viewBox="0 0 16.128 21.763" fill="none" xmlns="http://www.w3.org/2000/svg">
<path id="Vector" d="M10.314 21.763V15.7367L7.81275 13.382L6.787 18.0167L0 16.6233L0.33775 15.0302L5.289 16.0207L7.062 7.04675L4.755 8.1065V11.518H3.06525V6.981L7.14225 5.2565C7.68625 5.024 8.08758 4.87383 8.34625 4.806C8.60508 4.738 8.849 4.704 9.078 4.704C9.422 4.704 9.72908 4.78317 9.99925 4.9415C10.2693 5.09983 10.5003 5.32408 10.6923 5.61425L11.719 7.28475C12.1627 8.01075 12.7626 8.60892 13.5188 9.07925C14.2749 9.54958 15.1447 9.79283 16.128 9.809V11.4987C14.9712 11.4709 13.9442 11.2092 13.0472 10.7135C12.1502 10.2178 11.3507 9.45583 10.6485 8.4275L9.7935 12.2475L12.0038 14.3397V21.763H10.314ZM9.24475 3.295C8.87042 2.92067 8.68325 2.46508 8.68325 1.92825C8.68325 1.39158 8.87042 0.936083 9.24475 0.561749C9.61908 0.187249 10.0747 0 10.6115 0C11.1482 0 11.6037 0.187249 11.978 0.561749C12.3523 0.936083 12.5395 1.39158 12.5395 1.92825C12.5395 2.46508 12.3523 2.92067 11.978 3.295C11.6037 3.66933 11.1482 3.8565 10.6115 3.8565C10.0747 3.8565 9.61908 3.66933 9.24475 3.295Z" fill="#262626"/>
</svg>
