<svg viewBox="0 0 20.2333 20.0665" fill="none" xmlns="http://www.w3.org/2000/svg">
<path id="Vector" d="M10.014 20.0665C8.6345 20.0665 7.33792 19.8016 6.12425 19.2718C4.91058 18.7418 3.84867 18.0244 2.9385 17.1198C2.02817 16.2151 1.31083 15.1515 0.7865 13.929C0.262167 12.7067 0 11.4081 0 10.0333C0 8.62808 0.265833 7.31433 0.7975 6.092C1.329 4.8695 2.06125 3.80708 2.99425 2.90475C3.92708 2.00242 5.01517 1.29267 6.2585 0.7755C7.502 0.2585 8.83675 0 10.2628 0C11.5948 0 12.8607 0.225334 14.0605 0.676001C15.2603 1.1265 16.3169 1.75133 17.2303 2.5505C18.1438 3.34967 18.8726 4.29642 19.4168 5.39075C19.9611 6.48492 20.2333 7.67517 20.2333 8.9615C20.2333 10.8358 19.6582 12.2826 18.508 13.3018C17.3577 14.3211 15.9289 14.8307 14.2218 14.8307H12.8C12.4965 14.8307 12.2289 14.9445 11.9973 15.172C11.7656 15.3995 11.6498 15.6703 11.6498 15.9845C11.6498 16.3508 11.7453 16.6435 11.9365 16.8625C12.1275 17.0815 12.223 17.3995 12.223 17.8165C12.223 18.4222 12.0084 18.9486 11.5793 19.3958C11.1503 19.8429 10.6285 20.0665 10.014 20.0665ZM5.23525 10.4218C5.50225 10.1603 5.63575 9.84825 5.63575 9.48575C5.63575 9.12342 5.50225 8.8115 5.23525 8.55C4.96808 8.2885 4.65608 8.15775 4.29925 8.15775C3.94242 8.15775 3.63325 8.2885 3.37175 8.55C3.11025 8.8115 2.9795 9.12342 2.9795 9.48575C2.9795 9.84825 3.11025 10.1603 3.37175 10.4218C3.63325 10.6833 3.94242 10.814 4.29925 10.814C4.65608 10.814 4.96808 10.6833 5.23525 10.4218ZM8.34275 6.23325C8.60992 5.97175 8.7435 5.65975 8.7435 5.29725C8.7435 4.93492 8.60992 4.623 8.34275 4.3615C8.07575 4.1 7.76383 3.96925 7.407 3.96925C7.05017 3.96925 6.741 4.1 6.4795 4.3615C6.21783 4.623 6.087 4.93492 6.087 5.29725C6.087 5.65975 6.21783 5.97175 6.4795 6.23325C6.741 6.49475 7.05017 6.6255 7.407 6.6255C7.76383 6.6255 8.07575 6.49475 8.34275 6.23325ZM13.5788 6.23325C13.8459 5.97175 13.9795 5.65975 13.9795 5.29725C13.9795 4.93492 13.8459 4.623 13.5788 4.3615C13.3116 4.1 12.9996 3.96925 12.6428 3.96925C12.2859 3.96925 11.9768 4.1 11.7153 4.3615C11.4538 4.623 11.323 4.93492 11.323 5.29725C11.323 5.65975 11.4538 5.97175 11.7153 6.23325C11.9768 6.49475 12.2859 6.6255 12.6428 6.6255C12.9996 6.6255 13.3116 6.49475 13.5788 6.23325ZM16.7775 10.4218C17.0445 10.1603 17.178 9.84825 17.178 9.48575C17.178 9.12342 17.0445 8.8115 16.7775 8.55C16.5103 8.2885 16.1983 8.15775 15.8415 8.15775C15.4847 8.15775 15.1755 8.2885 14.914 8.55C14.6525 8.8115 14.5218 9.12342 14.5218 9.48575C14.5218 9.84825 14.6525 10.1603 14.914 10.4218C15.1755 10.6833 15.4847 10.814 15.8415 10.814C16.1983 10.814 16.5103 10.6833 16.7775 10.4218ZM9.94725 18.3768C10.1349 18.3768 10.2795 18.3426 10.381 18.2743C10.4825 18.2059 10.5333 18.0867 10.5333 17.9165C10.5333 17.6777 10.41 17.4534 10.1635 17.2438C9.91683 17.0343 9.7935 16.6068 9.7935 15.9615C9.7935 15.1782 10.0424 14.5123 10.5403 13.9638C11.0381 13.4153 11.6584 13.141 12.4013 13.141H14.2218C15.4243 13.141 16.4452 12.7991 17.2845 12.1153C18.1238 11.4316 18.5435 10.3803 18.5435 8.9615C18.5435 6.78367 17.7102 5.02725 16.0435 3.69225C14.3768 2.35725 12.4499 1.68975 10.2628 1.68975C7.85675 1.68975 5.82642 2.49642 4.17175 4.10975C2.51708 5.72325 1.68975 7.69775 1.68975 10.0333C1.68975 12.3521 2.48842 14.3224 4.08575 15.9443C5.68325 17.5659 7.63708 18.3768 9.94725 18.3768Z" fill="#262626"/>
</svg>
