<svg viewBox="0 0 19.4333 18.302" fill="none" xmlns="http://www.w3.org/2000/svg">
<path id="Vector" d="M1.81475 10.3668C1.23142 9.79442 0.783083 9.12417 0.46975 8.356C0.156583 7.58783 0 6.78325 0 5.94225C0 4.29442 0.531584 2.89208 1.59475 1.73525C2.65808 0.578416 3.94717 0 5.462 0C6.1655 0 6.85633 0.143416 7.5345 0.430249C8.21267 0.716916 8.82508 1.11967 9.37175 1.6385L9.70825 1.99425L10.0255 1.65775C10.5683 1.12608 11.1763 0.716916 11.8493 0.430249C12.5224 0.143416 13.2158 0 13.9295 0C15.4555 0 16.7543 0.575666 17.8258 1.727C18.8974 2.87833 19.4333 4.27508 19.4333 5.91725C19.4333 6.75925 19.2754 7.56292 18.9598 8.32825C18.6443 9.09358 18.1972 9.76792 17.6185 10.3513L9.68325 18.302L1.81475 10.3668ZM5.462 1.68975C4.41433 1.68975 3.52367 2.10008 2.79 2.92075C2.0565 3.74142 1.68975 4.74025 1.68975 5.91725C1.68975 6.28625 1.73142 6.64892 1.81475 7.00525C1.89808 7.36158 2.02317 7.69658 2.19 8.01025H6.84925L8.45575 9.97L10.3402 5.22H10.646L13.0095 8.01025H17.2178C17.3938 7.69192 17.5226 7.35375 17.6043 6.99575C17.6859 6.63792 17.7258 6.27842 17.7238 5.91725C17.7326 4.73875 17.3696 3.73458 16.6348 2.90475C15.8998 2.07508 14.999 1.66025 13.9325 1.66025C13.3983 1.66025 12.8875 1.77433 12.4 2.0025C11.9123 2.23083 11.4747 2.55033 11.087 2.961L10.0745 4.06725H9.3525L8.3275 2.961C7.93817 2.55233 7.49192 2.23825 6.98875 2.01875C6.48558 1.79942 5.97667 1.68975 5.462 1.68975ZM9.70825 15.902L15.8853 9.7H12.585L10.9607 7.74025L9.11775 12.4955H8.79025L6.41525 9.7H3.5325L9.70825 15.902Z" fill="#262626"/>
</svg>
