<svg viewBox="0 0 21.5113 18.0665" fill="none" xmlns="http://www.w3.org/2000/svg">
<path id="Vector" d="M4.89425 7.2415L2.73525 8.55575L0 3.75825L6.431 0H8.65175V0.9935C8.65175 1.6055 8.84833 2.10808 9.2415 2.50125C9.63467 2.89442 10.1373 3.091 10.7493 3.091C11.3613 3.091 11.8632 2.89442 12.255 2.50125C12.6468 2.10808 12.8428 1.6055 12.8428 0.9935V0H15.0543L21.5113 3.75825L18.7025 8.6075L16.5468 7.1865V18.0665H4.89425V7.2415ZM6.58375 4.38075V16.3768H14.857V4.38075L18.1403 6.216L19.2415 4.34725L14.9383 1.8435H14.398C14.2103 2.70767 13.7808 3.41325 13.1093 3.96025C12.4376 4.50725 11.6537 4.78075 10.7575 4.78075C9.81433 4.78075 9.01533 4.50725 8.3605 3.96025C7.7055 3.41325 7.28208 2.70767 7.09025 1.8435H6.55625L2.24675 4.34725L3.348 6.216L6.58375 4.38075Z" fill="#262626"/>
</svg>
