<svg viewBox="0 0 21.9333 9.77875" fill="none" xmlns="http://www.w3.org/2000/svg">
<path id="Vector" d="M9.0385 7.1485L7.97425 6.07325C8.11142 5.88625 8.2155 5.683 8.2865 5.4635C8.3575 5.244 8.393 5.0265 8.393 4.811C8.393 4.5955 8.35592 4.38425 8.28175 4.17725C8.20758 3.97008 8.10192 3.76375 7.96475 3.55825L9.02875 2.489C9.31942 2.85017 9.54125 3.22717 9.69425 3.62C9.84725 4.013 9.92375 4.41375 9.92375 4.82225C9.92375 5.23075 9.84883 5.63367 9.699 6.031C9.54917 6.42817 9.329 6.80067 9.0385 7.1485ZM11.4928 9.58375L10.4488 8.546C10.9526 8.03833 11.321 7.46042 11.554 6.81225C11.7872 6.16425 11.9038 5.49742 11.9038 4.81175C11.9038 4.12608 11.7872 3.45592 11.554 2.80125C11.321 2.14642 10.9526 1.569 10.4488 1.069L11.5178 0C12.1584 0.7055 12.6311 1.46825 12.9358 2.28825C13.2404 3.10808 13.3928 3.94558 13.3928 4.80075C13.3928 5.65592 13.2382 6.49075 12.929 7.30525C12.6198 8.11975 12.1411 8.87925 11.4928 9.58375ZM3.83375 5.4365C3.32175 5.4365 2.88958 5.25817 2.53725 4.9015C2.18508 4.54483 2.009 4.11208 2.009 3.60325C2.009 3.09458 2.18733 2.65992 2.544 2.29925C2.9005 1.93858 3.33317 1.75825 3.842 1.75825C4.35067 1.75825 4.78533 1.93917 5.146 2.301C5.50667 2.66283 5.687 3.09967 5.687 3.6115C5.687 4.1235 5.50608 4.55567 5.14425 4.908C4.78258 5.26033 4.34575 5.4365 3.83375 5.4365ZM0 9.77875V9.319C0 8.95583 0.10125 8.62608 0.30375 8.32975C0.506417 8.03342 0.781833 7.81 1.13 7.6595C1.53817 7.4815 1.96942 7.34192 2.42375 7.24075C2.87825 7.13958 3.35 7.089 3.839 7.089C4.32783 7.089 4.79875 7.13958 5.25175 7.24075C5.70475 7.34192 6.14067 7.4815 6.5595 7.6595C6.89667 7.81 7.16933 8.03342 7.3775 8.32975C7.58567 8.62608 7.68975 8.95583 7.68975 9.319V9.77875H0ZM18.0773 5.4365C17.5653 5.4365 17.1332 5.25817 16.781 4.9015C16.4287 4.54483 16.2525 4.11208 16.2525 3.60325C16.2525 3.09458 16.4308 2.65992 16.7875 2.29925C17.1442 1.93858 17.5768 1.75825 18.0855 1.75825C18.5943 1.75825 19.0291 1.93917 19.3898 2.301C19.7504 2.66283 19.9308 3.09967 19.9308 3.6115C19.9308 4.1235 19.7498 4.55567 19.388 4.908C19.0262 5.26033 18.5893 5.4365 18.0773 5.4365ZM14.2435 9.77875V9.319C14.2435 8.95583 14.3448 8.62608 14.5475 8.32975C14.75 8.03342 15.0254 7.81 15.3738 7.6595C15.7818 7.4815 16.213 7.34192 16.6675 7.24075C17.1218 7.13958 17.5935 7.089 18.0825 7.089C18.5715 7.089 19.0425 7.13958 19.4955 7.24075C19.9485 7.34192 20.3843 7.4815 20.803 7.6595C21.1402 7.81 21.4128 8.03342 21.621 8.32975C21.8292 8.62608 21.9333 8.95583 21.9333 9.319V9.77875H14.2435Z" fill="#262626"/>
</svg>
