<svg viewBox="0 0 21.6 15.4038" fill="none" xmlns="http://www.w3.org/2000/svg">
<path id="Vector" d="M2.859 10.0103H4.011L4.468 8.693H7.1025L7.55825 10.0103H8.7045L6.3955 3.714H5.175L2.859 10.0103ZM4.8405 7.6975L5.75825 5.05525H5.802L6.7385 7.6975H4.8405ZM5.0845 12.0488C5.9665 12.0488 6.82467 12.1558 7.659 12.37C8.49317 12.584 9.3175 12.897 10.132 13.309V2.938C9.39783 2.45033 8.59417 2.07592 7.721 1.81475C6.848 1.55358 5.96917 1.423 5.0845 1.423C4.43883 1.423 3.80242 1.49042 3.17525 1.62525C2.54808 1.76008 1.964 1.95017 1.423 2.1955V12.7385C1.94483 12.5095 2.52967 12.3373 3.1775 12.2218C3.82517 12.1064 4.46083 12.0488 5.0845 12.0488ZM11.555 13.309C12.3723 12.897 13.1798 12.584 13.9775 12.37C14.7753 12.1558 15.6202 12.0488 16.512 12.0488C17.1322 12.0488 17.771 12.1019 18.4285 12.2083C19.086 12.3148 19.6688 12.4702 20.177 12.6745V2.222C19.6607 1.93983 19.0837 1.73617 18.4462 1.611C17.8087 1.48567 17.165 1.423 16.515 1.423C15.6198 1.423 14.7518 1.55358 13.911 1.81475C13.0703 2.07592 12.285 2.45033 11.555 2.938V13.309ZM10.8238 15.4038C9.99525 14.7861 9.093 14.3114 8.117 13.9798C7.141 13.6479 6.13017 13.482 5.0845 13.482C4.06667 13.482 3.07925 13.6692 2.12225 14.0435C1.16508 14.4178 0.457667 14.7403 0 15.0108V1.282C0.698667 0.864167 1.50408 0.546001 2.41625 0.327501C3.32825 0.109168 4.21767 0 5.0845 0C6.11117 0 7.11283 0.145084 8.0895 0.435251C9.06617 0.725418 9.97867 1.14317 10.827 1.6885C11.6752 1.14317 12.5787 0.725418 13.5375 0.435251C14.4962 0.145084 15.4888 0 16.5155 0C17.3823 0 18.2702 0.110917 19.179 0.33275C20.0878 0.554583 20.8948 0.871001 21.6 1.282V15.0108C21.1358 14.7334 20.4268 14.4093 19.473 14.0385C18.5192 13.6675 17.5333 13.482 16.5155 13.482C15.4848 13.482 14.4868 13.6496 13.5215 13.9848C12.5563 14.3199 11.6571 14.7929 10.8238 15.4038ZM12.7423 5.377V4.37175C13.2859 4.09475 13.8548 3.88817 14.449 3.752C15.0433 3.61567 15.6603 3.5475 16.3 3.5475C16.7013 3.5475 17.0911 3.576 17.4693 3.633C17.8474 3.69 18.2269 3.76533 18.6078 3.859V4.86925C18.2334 4.73842 17.8613 4.6435 17.4913 4.5845C17.1214 4.52567 16.7243 4.49625 16.3 4.49625C15.6603 4.49625 15.0408 4.57217 14.4413 4.724C13.8419 4.876 13.2756 5.09367 12.7423 5.377ZM12.7423 10.8578V9.823C13.2731 9.5495 13.8404 9.34542 14.4443 9.21075C15.0481 9.07625 15.6667 9.009 16.3 9.009C16.7013 9.009 17.0911 9.0375 17.4693 9.0945C17.8474 9.15167 18.2269 9.227 18.6078 9.3205V10.3308C18.2334 10.1999 17.8613 10.1051 17.4913 10.0463C17.1214 9.98725 16.7243 9.95775 16.3 9.95775C15.6603 9.95775 15.0408 10.0343 14.4413 10.1875C13.8419 10.3407 13.2756 10.5641 12.7423 10.8578ZM12.7423 8.127V7.1025C13.2859 6.8255 13.8548 6.61892 14.449 6.48275C15.0433 6.34642 15.6603 6.27825 16.3 6.27825C16.7013 6.27825 17.0911 6.30675 17.4693 6.36375C17.8474 6.42092 18.2269 6.49625 18.6078 6.58975V7.6C18.2334 7.46917 17.8613 7.37433 17.4913 7.3155C17.1214 7.2565 16.7243 7.227 16.3 7.227C15.6603 7.227 15.0408 7.30617 14.4413 7.4645C13.8419 7.62283 13.2756 7.84367 12.7423 8.127Z" fill="#262626"/>
</svg>
