<svg viewBox="0 0 22.1665 20.1755" fill="none" xmlns="http://www.w3.org/2000/svg">
<path id="Vector" d="M1.0935 20.1755C1.5235 18.982 1.82433 17.7299 1.996 16.4193C2.16783 15.1086 2.27383 13.722 2.314 12.2595C1.62817 12.0253 1.071 11.5926 0.6425 10.9613C0.214167 10.3298 0 9.61358 0 8.81275V7.11275C1.93933 6.45642 3.91067 5.46925 5.914 4.15125C7.9175 2.83325 9.64058 1.4495 11.0833 0C12.5259 1.4495 14.2518 2.83325 16.2608 4.15125C18.2698 5.46925 20.2383 6.45642 22.1665 7.11275V8.81275C22.1665 9.61358 21.9551 10.3298 21.5323 10.9613C21.1094 11.5926 20.555 12.0253 19.869 12.2595C19.8982 13.6903 20.0003 15.0645 20.1755 16.382C20.3507 17.6995 20.6554 18.964 21.0898 20.1755H1.0935ZM4.01125 7.123H18.1553C16.8488 6.47167 15.5922 5.73608 14.3855 4.91625C13.1788 4.09642 12.0781 3.2115 11.0833 2.2615C10.1243 3.18667 9.03592 4.06367 7.81825 4.8925C6.60042 5.72133 5.33142 6.46483 4.01125 7.123ZM13.6788 10.7538C14.1813 10.7538 14.5914 10.5612 14.9093 10.1762C15.2269 9.79125 15.3858 9.33675 15.3858 8.81275H11.9448C11.9448 9.33675 12.1053 9.79125 12.4265 10.1762C12.7477 10.5612 13.1651 10.7538 13.6788 10.7538ZM8.548 10.7538C9.05483 10.7538 9.46608 10.5612 9.78175 10.1762C10.0973 9.79125 10.255 9.33675 10.255 8.81275H6.8205C6.8205 9.33675 6.98 9.79125 7.299 10.1762C7.618 10.5612 8.03433 10.7538 8.548 10.7538ZM3.42375 10.7538C3.92625 10.7538 4.33633 10.5612 4.654 10.1762C4.97183 9.79125 5.13075 9.33675 5.13075 8.81275H1.68975C1.68975 9.33675 1.85033 9.79125 2.1715 10.1762C2.4925 10.5612 2.90992 10.7538 3.42375 10.7538ZM3.319 18.4858H6.4185C6.55783 17.5363 6.67975 16.5508 6.78425 15.5295C6.88875 14.508 6.96958 13.3631 7.02675 12.0948C6.84992 12.0354 6.65783 11.9101 6.4505 11.7188C6.24333 11.5276 6.08975 11.3382 5.98975 11.1505C5.71025 11.5117 5.40492 11.7885 5.07375 11.981C4.74242 12.1735 4.38575 12.2997 4.00375 12.3595C3.96358 13.4603 3.89208 14.5148 3.78925 15.523C3.68658 16.5312 3.52983 17.5188 3.319 18.4858ZM8.13375 18.4858H14.0743C13.9341 17.5551 13.8174 16.5988 13.7243 15.617C13.6311 14.6352 13.5482 13.5583 13.4755 12.3865C12.9675 12.3573 12.4996 12.2273 12.0718 11.9965C11.6439 11.7655 11.302 11.4491 11.046 11.0473C10.8012 11.4491 10.4724 11.7655 10.0598 11.9965C9.64725 12.2273 9.19442 12.3573 8.70125 12.3865C8.63275 13.4207 8.55783 14.4411 8.4765 15.4478C8.39517 16.4544 8.28092 17.4671 8.13375 18.4858ZM15.771 18.4858H18.864C18.6465 17.4871 18.4853 16.4833 18.3805 15.4745C18.2755 14.4658 18.2085 13.4386 18.1795 12.3927C17.7875 12.3441 17.4284 12.2128 17.1023 11.9988C16.7759 11.7846 16.4901 11.4954 16.2448 11.1313C16.1303 11.3723 15.9703 11.5783 15.765 11.7493C15.5597 11.9203 15.3547 12.0354 15.15 12.0948C15.1892 13.1016 15.2613 14.1268 15.3663 15.1703C15.4711 16.2136 15.606 17.3188 15.771 18.4858ZM18.803 10.7538C19.31 10.7538 19.7213 10.5612 20.0368 10.1762C20.3524 9.79125 20.5103 9.33675 20.5103 8.81275H17.0755C17.0755 9.33675 17.235 9.79125 17.554 10.1762C17.873 10.5612 18.2893 10.7538 18.803 10.7538Z" fill="#262626"/>
</svg>
