<svg viewBox="0 0 18.0665 18.0665" fill="none" xmlns="http://www.w3.org/2000/svg">
<path id="Vector" d="M0 18.0665V12.1615H1.68975V16.3768H5.905V18.0665H0ZM12.1615 18.0665V16.3768H16.3768V12.1615H18.0665V18.0665H12.1615ZM0 5.905V0H5.905V1.68975H1.68975V5.905H0ZM16.3768 5.905V1.68975H12.1615V0H18.0665V5.905H16.3768ZM6.36025 11.709C5.63542 10.986 5.273 10.095 5.273 9.036C5.273 7.97683 5.6345 7.08492 6.3575 6.36025C7.0805 5.63542 7.9715 5.273 9.0305 5.273C10.0897 5.273 10.9816 5.6345 11.7063 6.3575C12.4311 7.0805 12.7935 7.9715 12.7935 9.0305C12.7935 10.0897 12.432 10.9816 11.709 11.7063C10.986 12.4311 10.095 12.7935 9.036 12.7935C7.97683 12.7935 7.08492 12.432 6.36025 11.709ZM10.4945 10.4953C10.9007 10.0896 11.1038 9.6025 11.1038 9.034C11.1038 8.4655 10.9009 7.97817 10.4953 7.572C10.0896 7.16583 9.6025 6.96275 9.034 6.96275C8.4655 6.96275 7.97817 7.16558 7.572 7.57125C7.16583 7.97692 6.96275 8.464 6.96275 9.0325C6.96275 9.601 7.16558 10.0883 7.57125 10.4945C7.97692 10.9007 8.464 11.1038 9.0325 11.1038C9.601 11.1038 10.0883 10.9009 10.4945 10.4953Z" fill="#262626"/>
</svg>
