<svg viewBox="0 0 22.0247 20.0813" fill="none" xmlns="http://www.w3.org/2000/svg">
<path id="Vector" d="M18.217 5.39925C18.4938 5.39925 18.7367 5.29533 18.9457 5.0875C19.1549 4.8795 19.2595 4.63825 19.2595 4.36375C19.2595 4.08558 19.1549 3.84783 18.9457 3.6505C18.7367 3.45317 18.4938 3.3545 18.217 3.3545C17.9323 3.3545 17.693 3.45283 17.499 3.6495C17.3052 3.84617 17.2082 4.08567 17.2082 4.368C17.2082 4.6345 17.3052 4.873 17.499 5.0835C17.693 5.294 17.9323 5.39925 18.217 5.39925ZM14.0095 5.39925C14.298 5.39925 14.5439 5.29533 14.7472 5.0875C14.9506 4.8795 15.0522 4.63825 15.0522 4.36375C15.0522 4.08558 14.9507 3.84783 14.7475 3.6505C14.5442 3.45317 14.2982 3.3545 14.0097 3.3545C13.7354 3.3545 13.4998 3.45283 13.303 3.6495C13.106 3.84617 13.0075 4.08567 13.0075 4.368C13.0075 4.6345 13.1047 4.873 13.2992 5.0835C13.4936 5.294 13.7303 5.39925 14.0095 5.39925ZM13.505 8.8295H18.71C18.678 8.29017 18.405 7.84975 17.891 7.50825C17.3768 7.16675 16.7824 6.996 16.1078 6.996C15.4203 6.996 14.8194 7.16675 14.3052 7.50825C13.7909 7.84975 13.5242 8.29017 13.505 8.8295ZM1.7205 18.3338C0.5735 17.1688 0 15.7767 0 14.1575V7.31675H11.8177V14.1498C11.8177 15.7723 11.2466 17.1664 10.1043 18.3323C8.96192 19.4983 7.56575 20.0813 5.91575 20.0813C4.26592 20.0813 2.8675 19.4988 1.7205 18.3338ZM8.9005 17.138C9.71883 16.3023 10.128 15.3085 10.128 14.1565V9.00625H1.6895V14.1565C1.6895 15.3085 2.09983 16.3023 2.9205 17.138C3.741 17.9737 4.73817 18.3915 5.912 18.3915C7.086 18.3915 8.08217 17.9737 8.9005 17.138ZM16.1075 12.7583C15.6403 12.7583 15.1771 12.7031 14.7177 12.5928C14.2584 12.4826 13.8475 12.3292 13.485 12.1325L13.5042 10.296C13.8654 10.5115 14.2649 10.6941 14.7027 10.8438C15.1404 10.9936 15.6087 11.0685 16.1075 11.0685C17.2763 11.0685 18.2731 10.6696 19.0977 9.87175C19.9226 9.07408 20.335 8.09958 20.335 6.94825V1.68975H11.8345V5.68H10.1448V0H22.0248V6.9445C22.0248 8.55583 21.4495 9.92767 20.299 11.06C19.1483 12.1922 17.7512 12.7583 16.1075 12.7583ZM3.85525 12.596C4.13575 12.596 4.37367 12.5003 4.569 12.3088C4.76433 12.1173 4.862 11.8788 4.862 11.5935C4.862 11.3143 4.76475 11.0708 4.57025 10.863C4.37592 10.6552 4.13917 10.5513 3.86 10.5513C3.5715 10.5513 3.32558 10.6549 3.12225 10.8623C2.91892 11.0698 2.81725 11.3127 2.81725 11.591C2.81725 11.8775 2.92017 12.1167 3.126 12.3085C3.33183 12.5002 3.57492 12.596 3.85525 12.596ZM8.7705 12.3088C8.96533 12.1173 9.06275 11.8788 9.06275 11.5935C9.06275 11.3143 8.96542 11.0708 8.77075 10.863C8.57625 10.6552 8.33933 10.5513 8.06 10.5513C7.7695 10.5513 7.52317 10.6549 7.321 10.8623C7.11883 11.0698 7.01775 11.3127 7.01775 11.591C7.01775 11.8775 7.12142 12.1167 7.32875 12.3085C7.53608 12.5002 7.7795 12.596 8.059 12.596C8.3385 12.596 8.57567 12.5003 8.7705 12.3088ZM7.7615 15.659C8.27817 15.323 8.54608 14.8798 8.56525 14.3295H3.36C3.37933 14.8798 3.64725 15.323 4.16375 15.659C4.68025 15.9948 5.27983 16.1628 5.9625 16.1628C6.64517 16.1628 7.24483 15.9948 7.7615 15.659Z" fill="#262626"/>
</svg>
