<svg viewBox="0 0 22.024 22.0743" fill="none" xmlns="http://www.w3.org/2000/svg">
<path id="Vector" d="M13.08 12.427C12.6617 11.5672 11.9311 10.8937 10.8883 10.4065C9.84558 9.91933 8.74083 9.67575 7.574 9.67575C6.4105 9.67575 5.30258 9.91792 4.25025 10.4023C3.19775 10.8868 2.47583 11.5617 2.0845 12.427H13.08ZM0 14.1168C0 12.2463 0.7655 10.7568 2.2965 9.6485C3.82767 8.54017 5.58608 7.986 7.57175 7.986C9.56225 7.986 11.3218 8.54017 12.8505 9.6485C14.3792 10.7568 15.1435 12.2463 15.1435 14.1168H0ZM0 18.0448V16.3553H15.1435V18.0448H0ZM16.8998 22.0743V20.3845H18.6985L20.1485 5.33325H12.0383L10.1165 3.64375H15.1817V0H16.8715V3.64375H22.024L20.2197 22.0743H16.8998ZM0 22.0743V20.3845H15.1435V22.0743H0Z" fill="#262626"/>
</svg>
