<svg viewBox="0 0 20.0665 19.0665" fill="none" xmlns="http://www.w3.org/2000/svg">
<path id="Vector" d="M0 19.0665V17.3768H9.19675V5.54275C8.77192 5.41925 8.38933 5.19217 8.049 4.8615C7.70867 4.53067 7.4735 4.14008 7.3435 3.68975H3.81475L6.68975 10.966C6.66358 11.7473 6.32825 12.4126 5.68375 12.9618C5.03925 13.5111 4.26242 13.7858 3.35325 13.7858C2.43942 13.7858 1.65858 13.5111 1.01075 12.9618C0.362917 12.4126 0.026 11.7473 0 10.966L2.898 3.68975H1V2H7.3435C7.5265 1.4295 7.861 0.9535 8.347 0.572C8.833 0.190667 9.39508 0 10.0333 0C10.6714 0 11.2335 0.190667 11.7195 0.572C12.2055 0.9535 12.5478 1.4295 12.7463 2H19.0665V3.68975H17.1915L20.0665 10.966C20.0405 11.7473 19.7053 12.4126 19.0608 12.9618C18.4163 13.5111 17.6393 13.7858 16.73 13.7858C15.8162 13.7858 15.0353 13.5111 14.3875 12.9618C13.7398 12.4126 13.4029 11.7473 13.3768 10.966L16.275 3.68975H12.7453C12.6004 4.14008 12.3578 4.53067 12.0175 4.8615C11.6772 5.19217 11.3002 5.41925 10.8865 5.54275V17.3768H20.0665V19.0665H0ZM15.121 10.7243H18.339L16.73 6.516L15.121 10.7243ZM1.74425 10.7243H4.96225L3.35325 6.516L1.74425 10.7243ZM10.025 4C10.3552 4 10.633 3.88725 10.8585 3.66175C11.084 3.43608 11.1968 3.16375 11.1968 2.84475C11.1968 2.51458 11.0839 2.23958 10.8583 2.01975C10.6326 1.79975 10.3576 1.68975 10.0333 1.68975C9.70858 1.68975 9.43633 1.801 9.2165 2.0235C8.9965 2.24583 8.8865 2.51683 8.8865 2.8365C8.8865 3.161 8.9965 3.43608 9.2165 3.66175C9.43633 3.88725 9.70583 4 10.025 4Z" fill="#262626"/>
</svg>
