<svg viewBox="0 0 23.5335 11.5387" fill="none" xmlns="http://www.w3.org/2000/svg">
<path id="Vector" d="M0 11.5387V10.1747C0 9.45192 0.36175 8.86692 1.08525 8.41975C1.80875 7.97275 2.75058 7.74925 3.91075 7.74925C3.99725 7.74925 4.08608 7.75358 4.17725 7.76225C4.26858 7.77108 4.37367 7.77358 4.4925 7.76975C4.3125 8.10908 4.18117 8.44883 4.0985 8.789C4.01583 9.12933 3.9745 9.48592 3.9745 9.85875V11.5387H0ZM6 11.5387V9.89725C6 9.39025 6.13275 8.92375 6.39825 8.49775C6.66358 8.07192 7.06333 7.70575 7.5975 7.39925C8.12983 7.08858 8.74525 6.85558 9.44375 6.70025C10.1423 6.54475 10.9143 6.467 11.76 6.467C12.6218 6.467 13.4004 6.54475 14.0957 6.70025C14.7912 6.85558 15.407 7.08858 15.943 7.39925C16.4657 7.70992 16.8614 8.07717 17.1302 8.501C17.3991 8.92483 17.5335 9.39025 17.5335 9.89725V11.5387H6ZM19.559 11.5387V9.85925C19.559 9.47958 19.5172 9.1155 19.4335 8.767C19.3497 8.41833 19.224 8.08633 19.0565 7.771C19.186 7.774 19.2956 7.77108 19.3852 7.76225C19.4749 7.75358 19.5593 7.74925 19.6385 7.74925C20.809 7.74925 21.7508 7.971 22.4638 8.4145C23.1769 8.858 23.5335 9.44475 23.5335 10.1747V11.5387H19.559ZM7.9425 9.84925H15.5962V9.669C15.4471 9.19417 15.0317 8.82342 14.35 8.55675C13.6685 8.29008 12.8074 8.15675 11.7668 8.15675C10.7304 8.15675 9.87033 8.29425 9.1865 8.56925C8.50283 8.84425 8.08817 9.21425 7.9425 9.67925V9.84925ZM3.89625 6.9665C3.41592 6.9665 3.0045 6.79492 2.662 6.45175C2.3195 6.10858 2.14825 5.69567 2.14825 5.213C2.14825 4.72817 2.31983 4.31533 2.663 3.9745C3.00617 3.63367 3.41908 3.46325 3.90175 3.46325C4.38658 3.46325 4.801 3.63283 5.145 3.972C5.489 4.31117 5.661 4.72675 5.661 5.21875C5.661 5.69242 5.49158 6.10217 5.15275 6.448C4.81392 6.79367 4.39508 6.9665 3.89625 6.9665ZM19.6328 6.9665C19.1571 6.9665 18.7464 6.79392 18.4007 6.44875C18.0551 6.10358 17.8822 5.69267 17.8822 5.216C17.8822 4.72917 18.0548 4.31533 18.3998 3.9745C18.7449 3.63367 19.1575 3.46325 19.6375 3.46325C20.1275 3.46325 20.5429 3.63283 20.8837 3.972C21.2246 4.31117 21.395 4.72575 21.395 5.21575C21.395 5.69542 21.2258 6.10717 20.8875 6.451C20.5492 6.79467 20.1309 6.9665 19.6328 6.9665ZM11.778 5.7255C10.9858 5.7255 10.3088 5.44783 9.747 4.8925C9.185 4.33717 8.904 3.66292 8.904 2.86975C8.904 2.07392 9.18417 1.39667 9.7445 0.837999C10.3048 0.279332 10.9815 0 11.7745 0C12.5702 0 13.2449 0.277665 13.7988 0.832999C14.3526 1.3885 14.6295 2.06525 14.6295 2.86325C14.6295 3.65858 14.3529 4.33442 13.7997 4.89075C13.2466 5.44725 12.5727 5.7255 11.778 5.7255ZM11.79 4.03575C12.1023 4.03575 12.3721 3.92108 12.5993 3.69175C12.8263 3.46242 12.9397 3.17833 12.9397 2.8395C12.9397 2.52717 12.8248 2.25742 12.5948 2.03025C12.3646 1.80308 12.0905 1.6895 11.7725 1.6895C11.4485 1.6895 11.1711 1.80458 10.9403 2.03475C10.7093 2.26475 10.5938 2.53875 10.5938 2.85675C10.5938 3.18075 10.7084 3.45825 10.9378 3.68925C11.1671 3.92025 11.4512 4.03575 11.79 4.03575Z" fill="#262626"/>
</svg>
