<svg viewBox="0 0 18.6058 19.4333" fill="none" xmlns="http://www.w3.org/2000/svg">
<path id="Vector" d="M7.846 12.3775H9.455L9.56275 11.2655C9.74175 11.2278 9.91392 11.1647 10.0793 11.0762C10.2446 10.9877 10.3865 10.8738 10.505 10.7345L11.5345 11.0853L12.3045 9.73725L11.5275 9.1275C11.5975 8.90483 11.6325 8.68208 11.6325 8.45925C11.6325 8.23642 11.5975 8.01433 11.5275 7.793L12.3045 7.18325L11.5345 5.83525L10.505 6.186C10.3825 6.05133 10.2379 5.93858 10.0713 5.84775C9.90442 5.75692 9.73492 5.69483 9.56275 5.6615L9.45 4.543H7.841L7.73325 5.6615C7.55675 5.69483 7.38517 5.75692 7.2185 5.84775C7.05167 5.93858 6.907 6.05133 6.7845 6.186L5.755 5.83525L4.9915 7.18325L5.7685 7.793C5.69417 8.01583 5.657 8.23858 5.657 8.46125C5.657 8.68408 5.69417 8.90617 5.7685 9.1275L4.9915 9.73725L5.755 11.0853L6.7845 10.7345C6.903 10.8738 7.04492 10.9877 7.21025 11.0762C7.37558 11.1647 7.54992 11.2278 7.73325 11.2655L7.846 12.3775ZM7.347 9.76775C6.99467 9.41192 6.8185 8.97542 6.8185 8.45825C6.8185 7.94125 6.9955 7.50658 7.3495 7.15425C7.7035 6.80192 8.13575 6.62575 8.64625 6.62575C9.15692 6.62575 9.59258 6.80333 9.95325 7.1585C10.3139 7.51383 10.4943 7.94775 10.4943 8.46025C10.4943 8.97275 10.3136 9.40775 9.95225 9.76525C9.59092 10.1226 9.15442 10.3012 8.64275 10.3012C8.13125 10.3012 7.69933 10.1234 7.347 9.76775ZM3 19.4333V15.2965C2.03333 14.4018 1.29167 13.3909 0.775 12.2637C0.258333 11.1364 0 9.95167 0 8.7095C0 6.29333 0.84525 4.23775 2.53575 2.54275C4.22625 0.847584 6.2855 0 8.7135 0C10.68 0 12.4513 0.601333 14.0273 1.804C15.6031 3.0065 16.6282 4.54725 17.1025 6.42625L18.6058 12.4332H15.4333V17.4333H11.4333V19.4333H9.7435V15.7435H13.7435V10.7435H16.4512L15.4833 6.8525C15.0819 5.3465 14.2491 4.10958 12.9848 3.14175C11.7206 2.17375 10.2951 1.68975 8.70825 1.68975C6.76192 1.68975 5.10558 2.37292 3.73925 3.73925C2.37292 5.10558 1.68975 6.75208 1.68975 8.67875C1.68975 9.69025 1.89225 10.6516 2.29725 11.5628C2.70242 12.4739 3.28083 13.2684 4.0325 13.9462L4.68975 14.5448V19.4333H3Z" fill="#262626"/>
</svg>
