<svg viewBox="0 0 14.2 20.5415" fill="none" xmlns="http://www.w3.org/2000/svg">
<path id="Vector" d="M1.97875 19.6643C0.659584 19.0794 0 18.3217 0 17.391C0 16.9127 0.214 16.4579 0.642 16.0268C1.07 15.5958 1.665 15.2274 2.427 14.9218L3.591 16.0383C3.24233 16.1766 2.88875 16.3784 2.53025 16.6438C2.17175 16.9089 1.89225 17.1548 1.69175 17.3813C1.92642 17.7894 2.57467 18.1366 3.6365 18.4228C4.69833 18.7088 5.856 18.8518 7.1095 18.8518C8.35667 18.8518 9.5085 18.7071 10.565 18.4178C11.6217 18.1283 12.2691 17.7828 12.5072 17.3813C12.2994 17.1446 11.9992 16.9014 11.6065 16.6518C11.2137 16.4023 10.838 16.201 10.4795 16.048L11.682 14.9115C12.4732 15.217 13.0906 15.5889 13.5343 16.0273C13.9781 16.4654 14.2 16.9171 14.2 17.3823C14.2 18.3244 13.5377 19.0865 12.2132 19.6685C10.8886 20.2505 9.18142 20.5415 7.09175 20.5415C5.00208 20.5415 3.29775 20.2491 1.97875 19.6643ZM7.14175 14.9595C8.91142 13.6578 10.2403 12.3413 11.1283 11.01C12.0163 9.67867 12.4602 8.39817 12.4602 7.1685C12.4602 5.34517 11.8802 3.972 10.72 3.049C9.55967 2.12617 8.35058 1.66475 7.09275 1.66475C5.84808 1.66475 4.64475 2.1265 3.48275 3.05C2.32075 3.97367 1.73975 5.34242 1.73975 7.15625C1.73975 8.36108 2.187 9.60867 3.0815 10.899C3.976 12.1893 5.32942 13.5428 7.14175 14.9595ZM7.09175 17.0665C4.74042 15.324 2.98042 13.6316 1.81175 11.9893C0.642916 10.3468 0.0584999 8.74267 0.0584999 7.177C0.0584999 5.99717 0.273667 4.96108 0.704 4.06875C1.13433 3.17642 1.68508 2.42833 2.35625 1.8245C3.02742 1.2205 3.78108 0.765417 4.61725 0.45925C5.45358 0.153083 6.27842 0 7.09175 0C7.91058 0 8.73683 0.154001 9.5705 0.462001C10.404 0.770001 11.1597 1.22633 11.8375 1.831C12.5155 2.4355 13.0662 3.18233 13.4897 4.0715C13.9132 4.9605 14.125 5.99583 14.125 7.1775C14.125 8.74284 13.5434 10.3468 12.3802 11.9893C11.2169 13.6316 9.45408 15.324 7.09175 17.0665ZM7.09175 9.0025C7.64042 9.0025 8.10667 8.80808 8.4905 8.41925C8.87417 8.03058 9.066 7.56583 9.066 7.025C9.066 6.48133 8.87417 6.01683 8.4905 5.6315C8.10667 5.24633 7.64042 5.05375 7.09175 5.05375C6.54942 5.05375 6.08475 5.246 5.69775 5.6305C5.31092 6.01483 5.1175 6.47825 5.1175 7.02075C5.1175 7.56975 5.31092 8.03725 5.69775 8.42325C6.08475 8.80942 6.54942 9.0025 7.09175 9.0025Z" fill="#262626"/>
</svg>
