<svg viewBox="0 0 23.9333 19.9268" fill="none" xmlns="http://www.w3.org/2000/svg">
<path id="Vector" d="M1 19.9268V7.439C0.688833 7.265 0.444333 7.03667 0.2665 6.754C0.0888333 6.47133 0 6.15925 0 5.81775C0 5.47108 0.171417 5.05358 0.51425 4.56525C0.85725 4.07692 1.298 3.57225 1.8365 3.05125C2.375 3.57225 2.8185 4.07692 3.167 4.56525C3.5155 5.05358 3.68975 5.47108 3.68975 5.81775C3.68975 6.15925 3.59808 6.47083 3.41475 6.7525C3.23142 7.03417 2.98975 7.26367 2.68975 7.441V11.9935H5.12175V8.05H6.8885C6.65383 7.74233 6.46733 7.41492 6.329 7.06775C6.19083 6.72075 6.12175 6.34175 6.12175 5.93075C6.12175 5.29142 6.27192 4.69708 6.57225 4.14775C6.87258 3.59842 7.288 3.14617 7.8185 2.791L11.9582 0L16.1148 2.791C16.6341 3.14667 17.0467 3.5995 17.3525 4.1495C17.6585 4.6995 17.8115 5.29325 17.8115 5.93075C17.8115 6.34175 17.7396 6.72075 17.5958 7.06775C17.4519 7.41492 17.2683 7.74233 17.0448 8.05H18.8115V11.9935H21.2435V7.441C20.9323 7.26367 20.6879 7.03417 20.5103 6.7525C20.3324 6.47083 20.2435 6.15925 20.2435 5.81775C20.2435 5.47108 20.415 5.05358 20.758 4.56525C21.1008 4.07692 21.5415 3.57225 22.08 3.05125C22.6185 3.57225 23.062 4.07692 23.4105 4.56525C23.759 5.05358 23.9333 5.47108 23.9333 5.81775C23.9333 6.15925 23.8416 6.47083 23.6583 6.7525C23.4749 7.03417 23.2333 7.26583 22.9333 7.4475V19.9268H13.1218V14.805H10.8115V19.9268H1ZM9.85825 7.9665H14.0583C14.6384 7.9665 15.1273 7.77258 15.525 7.38475C15.9228 6.99708 16.1218 6.50892 16.1218 5.92025C16.1218 5.56908 16.0379 5.23908 15.8703 4.93025C15.7024 4.62158 15.4832 4.37658 15.2125 4.19525L11.9582 2.046L8.72075 4.19525C8.43892 4.37658 8.21692 4.62158 8.05475 4.93025C7.89258 5.23908 7.8115 5.56908 7.8115 5.92025C7.8115 6.50892 8.00758 6.99708 8.39975 7.38475C8.79192 7.77258 9.27808 7.9665 9.85825 7.9665ZM2.68975 18.237H9.12175V13.1152H14.8115V18.237H21.2435V13.6832H17.1218V9.90625C17.1218 9.84008 17.0977 9.78183 17.0495 9.7315C17.0015 9.68133 16.9423 9.65625 16.8718 9.65625H7.0615C6.991 9.65625 6.93167 9.68133 6.8835 9.7315C6.8355 9.78183 6.8115 9.84008 6.8115 9.90625V13.6832H2.68975V18.237Z" fill="#262626"/>
</svg>
