<svg viewBox="0 0 14.0485 19.1858" fill="none" xmlns="http://www.w3.org/2000/svg">
<path id="Vector" d="M0 19.1858V17.496H5.1615V15.0718H4.732C3.38667 15.0718 2.26167 14.5865 1.357 13.616C0.452333 12.6457 0 11.4832 0 10.1285C0 9.11667 0.290333 8.196 0.871 7.3665C1.45183 6.537 2.21958 5.93317 3.17425 5.555C3.24692 4.90333 3.545 4.38475 4.0685 3.99925C4.592 3.61375 5.16875 3.44342 5.79875 3.48825L5.2345 1.941L6.22175 1.58525L5.87175 0.65125L7.61775 0L7.92425 0.973L8.93075 0.608749L11.7153 8.07925L10.7063 8.435L11.0563 9.41275L9.337 10.0203L9.02425 9.0805L7.98325 9.4435L7.35375 7.737C7.10292 7.98183 6.81475 8.17017 6.48925 8.302C6.16392 8.43383 5.81392 8.49292 5.43925 8.47925C5.01908 8.46992 4.63483 8.34825 4.2865 8.11425C3.93817 7.88025 3.65292 7.58825 3.43075 7.23825C2.89442 7.51825 2.47017 7.91708 2.158 8.43475C1.84583 8.95225 1.68975 9.5205 1.68975 10.1395C1.68975 11.0433 2.01017 11.8098 2.651 12.4388C3.29183 13.0676 4.06333 13.382 4.9655 13.382H13.3435V15.0718H7.79975V17.496H14.0485V19.1858H0ZM8.83975 7.714L9.97175 7.2895L8.11925 2.2615L6.92425 2.6935L8.83975 7.714ZM6.41975 6.80725C6.64758 6.58408 6.7615 6.31375 6.7615 5.99625C6.7615 5.67892 6.64883 5.40592 6.4235 5.17725C6.19817 4.94875 5.92742 4.8345 5.61125 4.8345C5.29508 4.8345 5.02317 4.94758 4.7955 5.17375C4.56767 5.39992 4.45375 5.67167 4.45375 5.989C4.45375 6.3065 4.56642 6.57808 4.79175 6.80375C5.01708 7.02942 5.28783 7.14225 5.604 7.14225C5.92 7.14225 6.19192 7.03058 6.41975 6.80725Z" fill="#262626"/>
</svg>
