<svg viewBox="0 0 16.0665 20.0665" fill="none" xmlns="http://www.w3.org/2000/svg">
<path id="Vector" d="M0 20.0665V4.1H4.19675V3.72825C4.19675 2.67258 4.56892 1.78733 5.31325 1.0725C6.05758 0.357501 6.96383 0 8.032 0C9.1 0 10.0094 0.357501 10.7603 1.0725C11.5111 1.78733 11.8865 2.67258 11.8865 3.72825V4.1H16.0665V20.0665H0ZM1.68975 18.3768H14.3768V5.78975H11.8865V8.78975H10.1968V5.78975H5.8865V8.78975H4.19675V5.78975H1.68975V18.3768ZM5.8865 4.1H10.1968V3.72825C10.1968 3.14608 9.98542 2.66075 9.56275 2.27225C9.14008 1.88392 8.62983 1.68975 8.032 1.68975C7.43417 1.68975 6.92708 1.88392 6.51075 2.27225C6.09458 2.66075 5.8865 3.14608 5.8865 3.72825V4.1Z" fill="#262626"/>
</svg>
