<svg viewBox="0 0 18.0415 18.0415" fill="none" xmlns="http://www.w3.org/2000/svg">
<path id="Vector" d="M6.20775 16.2595L1.77175 11.8235C1.65892 12.4958 1.61875 13.2461 1.65125 14.0743C1.68375 14.9024 1.76325 15.5693 1.88975 16.075C2.33458 16.21 2.99142 16.3033 3.86025 16.3548C4.72908 16.4063 5.51158 16.3745 6.20775 16.2595ZM8.24925 15.9448C9.26375 15.7384 10.2079 15.4129 11.0818 14.9683C11.9554 14.5236 12.7107 13.9828 13.3475 13.3458C13.9623 12.7418 14.4857 12.0168 14.9175 11.171C15.3493 10.3253 15.6918 9.35908 15.9448 8.27225L9.76925 2.09675C8.73075 2.35358 7.78325 2.70167 6.92675 3.141C6.07042 3.58033 5.3365 4.10742 4.725 4.72225C4.08567 5.35392 3.548 6.10025 3.112 6.96125C2.67617 7.82208 2.33775 8.76575 2.09675 9.79225L8.24925 15.9448ZM6.89475 12.3313L5.71025 11.1468L11.1468 5.71025L12.3313 6.89475L6.89475 12.3313ZM16.2698 6.241C16.3804 5.55417 16.4164 4.79792 16.3778 3.97225C16.3391 3.14675 16.2638 2.47817 16.1518 1.9665C15.6916 1.849 15.0271 1.76067 14.1583 1.7015C13.2894 1.64233 12.5146 1.66917 11.8338 1.782L16.2698 6.241ZM4.56725 18.0415C3.62925 18.0415 2.78808 17.9783 2.04375 17.8518C1.29925 17.7253 0.830417 17.5698 0.63725 17.3855C0.45175 17.1955 0.299167 16.7286 0.1795 15.9848C0.0598333 15.2411 0 14.3955 0 13.448C0 11.4062 0.29725 9.50892 0.89175 7.75625C1.48608 6.00358 2.34117 4.5705 3.457 3.457C4.56767 2.363 5.99917 1.51333 7.7515 0.908C9.50367 0.302667 11.4164 0 13.4898 0C14.4194 0 15.2549 0.0656668 15.9963 0.197C16.7376 0.328333 17.202 0.479833 17.3895 0.6515C17.5817 0.845667 17.7384 1.31792 17.8598 2.06825C17.9809 2.81875 18.0415 3.66367 18.0415 4.603C18.0415 6.65267 17.7363 8.55442 17.1258 10.3083C16.5154 12.0621 15.6664 13.4856 14.5788 14.5788C13.4713 15.6958 12.034 16.5521 10.267 17.1478C8.50017 17.7436 6.60025 18.0415 4.56725 18.0415Z" fill="#262626"/>
</svg>
