<svg viewBox="0 0 18.0665 20.1152" fill="none" xmlns="http://www.w3.org/2000/svg">
<path id="Vector" d="M8.04875 12.2922V10.323H10.0178V12.2922H8.04875ZM4.04875 12.2922V10.323H6.01775V12.2922H4.04875ZM12.0488 12.2922V10.323H14.0178V12.2922H12.0488ZM8.04875 16.2152V14.246H10.0178V16.2152H8.04875ZM4.04875 16.2152V14.246H6.01775V16.2152H4.04875ZM12.0488 16.2152V14.246H14.0178V16.2152H12.0488ZM0 20.1152V1.805H3.1565V0H4.94225V1.805H13.1628V0H14.9165V1.805H18.0665V20.1152H0ZM1.68975 18.4255H16.3768V7.96775H1.68975V18.4255ZM1.68975 6.27825H16.3768V3.49475H1.68975V6.27825Z" fill="#262626"/>
</svg>
