<svg viewBox="0 0 23.2968 21.9525" fill="none" xmlns="http://www.w3.org/2000/svg">
<path id="Vector" d="M18.5283 15.1283C17.3141 15.1196 16.2784 14.7375 15.4213 13.982C14.5639 13.2265 14.0318 12.2586 13.825 11.0783H10.3873L9.61925 9.655H13.8323C13.8799 9.16233 14.0264 8.67283 14.2718 8.1865C14.5171 7.70017 14.8377 7.2965 15.2335 6.9755H8.15075L7.366 5.5525H15.9578L14.477 1.423H10.7893V0H15.4968L17.4833 5.5525H18.4135C19.8272 5.5525 20.9945 6.00425 21.9155 6.90775C22.8363 7.81108 23.2968 8.96267 23.2968 10.3625C23.2968 11.6853 22.8331 12.8103 21.9058 13.7375C20.9784 14.6647 19.8526 15.1283 18.5283 15.1283ZM18.5448 13.705C19.4769 13.705 20.2648 13.3841 20.9083 12.7423C21.5519 12.1006 21.8738 11.3128 21.8738 10.379C21.8738 9.40417 21.5689 8.59875 20.9593 7.96275C20.3498 7.32692 19.5528 7.009 18.5683 7.009C18.4979 7.009 18.3993 7.01708 18.2725 7.03325C18.1455 7.04942 18.0547 7.06608 18 7.08325L19.0288 9.812L17.6865 10.3308L16.6803 7.512C16.1986 7.84717 15.8309 8.26333 15.5773 8.7605C15.3236 9.25767 15.1968 9.794 15.1968 10.3695C15.1968 11.3118 15.5183 12.1033 16.1615 12.744C16.8045 13.3847 17.5989 13.705 18.5448 13.705ZM7.0595 21.9525C6.33433 21.9525 5.71658 21.7142 5.20625 21.2375C4.69575 20.761 4.4155 20.1711 4.3655 19.4678C4.3655 19.3918 4.36867 19.3238 4.375 19.264C4.3815 19.2042 4.39117 19.1383 4.404 19.0665H0V17.3768H5.08925C5.30508 17.1076 5.58017 16.898 5.9145 16.748C6.24883 16.598 6.63075 16.523 7.06025 16.523C7.44358 16.523 7.80217 16.5946 8.136 16.7378C8.46967 16.8809 8.77458 17.0939 9.05075 17.3768H11.8468V14.973H0V13.2833H2.097V10.1333H0V8.4435H6.941L9.6 13.2833H13.5365V19.0665H9.7295C9.74233 19.1383 9.75192 19.2042 9.75825 19.264C9.76475 19.3238 9.768 19.3918 9.768 19.4678C9.70683 20.1821 9.42142 20.7748 8.91175 21.246C8.40208 21.717 7.78467 21.9525 7.0595 21.9525ZM3.7865 13.2833H7.67575L5.9365 10.1333H3.7865V13.2833ZM7.05325 20.5295C7.41775 20.5295 7.72558 20.4068 7.97675 20.1613C8.22775 19.9159 8.35325 19.6088 8.35325 19.2398C8.35325 18.8751 8.2295 18.5683 7.982 18.3195C7.73433 18.0705 7.42825 17.946 7.06375 17.946C6.69908 17.946 6.39117 18.0688 6.14 18.3143C5.889 18.5596 5.7635 18.8646 5.7635 19.2293C5.7635 19.5981 5.88725 19.907 6.13475 20.156C6.38242 20.405 6.68858 20.5295 7.05325 20.5295Z" fill="#262626"/>
</svg>
