<svg width="138" height="81" viewBox="0 0 138 81" fill="none" xmlns="http://www.w3.org/2000/svg">
<path d="M9.47553 1.97127C11.3479 1.89188 13.6167 1.95619 15.5238 1.95685L120.807 1.95221C123.209 1.95329 125.618 1.94608 128.02 1.95694C128.555 1.95942 128.717 1.99886 129.11 2.34267C129.301 3.17564 129.256 5.65988 129.257 6.66165L129.234 14.8665L129.218 38.7433L129.23 65.6838C129.216 68.1375 129.219 70.592 129.238 73.0456C129.242 74.3558 129.298 76.1564 129.189 77.4326C129.094 77.6091 128.992 77.7093 128.842 77.8386C128.476 78.156 108.322 78.0242 106.451 78.0251L12.8018 78.0226C11.9797 78.0226 9.15426 78.1659 9.01196 77.7035C8.65342 76.5376 8.79301 72.1035 8.79495 70.8878L8.8048 60.3141L8.79604 17.4388L8.8058 8.2617C8.79991 7.05476 8.68548 3.29489 8.90897 2.40756C9.1089 2.13244 9.15644 2.12913 9.47553 1.97127ZM84.3513 39.1427C83.5124 39.1577 82.7609 39.1693 81.9195 39.1328C81.4432 39.6391 79.5432 40.9658 78.8843 41.439C75.8231 43.639 73.7741 45.7836 69.725 45.9203C68.1161 45.9659 66.5222 45.6055 65.0945 44.8737C64.0474 44.3343 62.8969 43.3855 61.9437 42.6521L57.915 39.5612C53.2855 36.0749 48.3189 32.4929 43.7814 28.9308L43.7284 28.7731C44.1396 28.6176 44.7574 29.1696 45.0807 29.4209C46.0343 30.1624 47.0033 30.8808 47.9731 31.6016L58.0455 39.1071C59.9809 40.5631 64.1773 44.1163 66.2357 44.8887C68.1573 45.6096 70.3729 45.5889 72.3276 45.0113C75.1095 44.1901 78.9861 40.7238 81.5703 39.0093C80.8483 38.8038 80.3653 38.6663 79.6795 38.3804C79.2327 38.885 78.0563 39.6723 77.4513 40.109C75.0952 41.8085 73.1716 43.6382 70.0935 43.8172C66.9035 44.0028 65.355 42.8178 63.0231 40.9326C62.0656 40.1578 60.6408 39.0789 59.6429 38.3663C59.1039 37.9552 55.2818 35.1363 55.2212 34.8385C55.7925 34.8727 56.124 35.2147 56.5531 35.5369C59.2241 37.5703 62.1235 39.6076 64.7399 41.6826C67.1989 43.6332 70.6094 43.934 73.3609 42.401C75.1381 41.4108 77.6995 39.4908 79.2891 38.1682C77.2123 37.2331 75.7271 35.4346 74.9311 33.3512C74.0493 31.0822 74.141 28.5576 75.1861 26.3566C76.1883 24.2069 78.0277 22.5452 80.2879 21.746C82.4891 20.9801 85.0985 21.0985 87.1946 22.1165C89.3387 23.1694 90.9719 25.0149 91.7393 27.2498C91.8151 27.4739 91.8681 27.7082 91.9161 27.9394C96.8681 28.5031 97.2232 27.8625 101.125 24.9257C101.745 24.4589 102.727 23.7099 103.441 23.4018C102.672 24.5453 99.5422 26.5214 98.2834 27.4702C98.8135 27.3111 101.255 26.646 101.483 26.4941C102.746 25.655 104.176 24.5501 105.421 23.6287L120.172 12.8424C124.174 9.89896 126.137 8.94427 126.982 3.67325L42.1934 3.69306C31.8539 3.69546 21.4131 3.59329 11.082 3.69878C12.3843 7.75084 14.1003 8.50317 17.3589 10.9302L22.6641 14.9638L42.3433 29.7622L60.7708 43.6647C61.7536 44.4022 63.1235 45.4613 64.1958 46.0024C66.9574 47.402 70.1743 47.6506 73.1237 46.6918C75.4587 45.9303 76.9767 44.4851 78.9306 43.1095C80.7212 41.8483 82.5623 40.3733 84.3513 39.1427ZM89.6163 35.1891C89.0046 35.0222 88.7656 34.9355 88.1859 34.6792L88.0058 34.5738C87.9814 34.561 87.9578 34.5482 87.9334 34.5355C84.3808 33.0699 81.8202 33.2329 78.3634 34.4859C79.1519 35.2368 79.5996 35.5744 80.5614 36.1184C80.728 36.2127 80.8197 36.2988 80.8458 36.4682C80.1036 36.7492 78.4653 34.9653 77.8081 34.5787L77.2771 33.2372C77.5447 33.4456 77.782 33.7032 78.021 33.9452C81.2051 32.6925 84.3362 32.5607 87.564 33.7047C88.3247 33.9743 87.8863 33.5647 88.2136 33.3454L88.2826 33.4202L88.2422 33.9035L88.3482 33.98C88.8304 33.7173 88.5847 33.2265 89.1535 33.2105C89.1906 33.4945 88.9448 33.7648 88.8548 34.2306L88.9558 34.3694L89.1763 34.3847C89.549 34.1877 89.9622 33.3056 90.1717 32.9177C86.9321 32.0111 84.6938 30.4915 81.0696 31.3297C80.6733 31.4212 78.1489 32.1576 78.0673 32.1538L77.957 32.0115C77.9949 31.6923 77.9419 31.8389 78.148 31.5652C82.9317 29.6218 85.9105 30.62 90.3476 32.4225C90.4654 32.1453 90.5765 31.9241 90.7136 31.6551C90.7599 31.632 90.8062 31.6089 90.8524 31.5858C90.855 31.9421 90.7708 32.3918 91.0965 32.5817C91.3565 32.3609 91.4591 31.2295 91.5189 30.8444C89.7796 30.4447 88.9962 30.0734 87.3562 29.4913C83.7715 28.2185 81.6191 28.7009 78.1766 29.756L78.0227 29.6225V29.4348C78.3786 28.8747 80.0548 28.5834 80.728 28.4018C84.7695 27.3111 87.84 29.3366 91.5054 30.2744C91.4978 29.7772 91.5307 28.8472 91.2984 28.4344C90.7372 28.115 90.8474 28.5664 90.4183 28.6296C90.3215 28.4828 90.2449 28.3308 90.1692 28.1728C87.1307 26.6316 82.9679 25.7804 79.6778 26.8806C79.199 27.0408 78.5259 27.4137 78.0673 27.2779L78.0134 27.0979C78.1009 26.9064 78.1245 26.8132 78.3643 26.7211C82.219 25.242 85.1271 25.5718 88.7959 27.0177L88.8683 27.0679C88.9583 27.1306 89.034 27.1883 89.1199 27.2548L89.257 27.2546C89.5701 27.3079 89.7072 27.3979 89.9016 27.271C89.7754 25.517 87.0028 23.3734 85.3871 23.0036C85.2407 22.9701 85.2247 22.9558 85.112 22.8573L85.1381 22.7167C85.5975 22.5644 86.3026 22.9184 86.7175 23.1181C88.5931 24.0199 89.8452 25.6539 90.6109 27.5273C90.6564 27.6376 90.977 27.6884 91.0847 27.7036L91.1436 27.5983C88.9558 20.67 79.3244 19.8512 75.9308 26.3887C74.9134 28.3928 74.746 30.7128 75.4663 32.8383C76.1504 34.9247 77.6575 36.6528 79.6484 37.6342C83.392 39.4916 86.9683 38.1135 89.6163 35.1891ZM100.73 29.2811C101.322 29.092 101.648 28.9973 102.275 28.9167C102.837 28.9023 104.459 27.5606 105.257 27.1206C104.62 27.0506 104.276 27.052 103.63 27.0674C102.745 27.7005 101.535 28.5775 100.73 29.2811ZM99.6954 27.7278C99.0904 27.8747 97.203 28.2215 96.7907 28.5478C96.2681 28.9613 94.6138 29.832 94.2225 30.2189L94.1914 30.3524L94.4228 30.3931C96.6047 30.3125 97.0044 30.0349 98.6957 28.6789C99.0921 28.3613 99.5801 28.1596 99.9285 27.7632C99.7787 27.6872 99.8561 27.6975 99.6954 27.7278ZM92.1752 30.3619C92.681 30.3814 93.2102 30.3892 93.7109 30.4499C94.1922 29.9517 94.8107 29.6506 95 29.4512C95.4292 29.0594 95.6774 28.8723 96.152 28.534C94.7417 28.7975 93.4829 28.7775 92.0709 28.5159C92.1104 29.1075 92.1702 29.7763 92.1752 30.3619ZM91.8454 32.7353C93.1379 33.0145 93.0966 32.6313 94.1064 31.9259L95.3888 31.0302C94.2982 31.0358 93.2565 31.0891 92.187 30.8628C92.0936 31.4836 92.012 32.1316 91.8454 32.7353ZM57.652 43.4319C57.2213 43.1385 56.9575 42.9496 56.5546 42.6132L11.8174 76.2691L117.373 76.2758C120.257 76.2608 123.141 76.2666 126.026 76.2932L96.7503 54.0793L88.1295 47.5569C86.1899 46.1068 83.9121 44.481 82.065 42.9529C77.4059 46.4126 74.0173 49.7545 67.6541 48.8969C63.5321 48.3417 61.2143 46.2037 58.0035 43.7824C54.1176 46.7001 50.2139 49.5946 46.2926 52.4659C44.9457 53.4653 41.4897 56.199 40.2754 56.7459C41.0145 55.7648 42.3507 54.9453 43.3401 54.1754C48.0274 50.5252 53.007 47.1252 57.652 43.4319ZM127.388 8.31092C125.904 11.0641 124.524 11.8745 122.041 13.6696C120.412 14.8407 118.789 16.0199 117.173 17.2074L108.75 23.3647C107.491 24.2727 105.654 25.6737 104.354 26.4484C104.863 26.4959 105.297 26.5346 105.801 26.624C109.787 23.8464 113.741 21.0243 117.662 18.1582C119.501 16.8353 121.67 15.1901 123.526 13.9474C123.628 14.5819 123.657 21.2119 123.487 21.8143L123.378 21.8934C122.962 21.4232 123.148 15.8763 123.119 14.8349C121.187 16.2775 119.092 17.696 117.117 19.1008L106.427 26.742C108.801 27.1735 110.103 28.0034 112.302 28.8485C114.625 29.741 117.732 29.6492 120.094 28.9158C120.335 28.8409 122.524 28.0689 122.595 28.0782C122.743 28.3686 122.711 28.2189 122.693 28.5446C121.998 29.1884 118.871 29.8574 117.9 29.9987C115.692 30.3194 112.806 29.9097 110.811 28.9013C108.987 27.9792 107.694 27.5954 105.706 27.1418C104.986 27.837 104.212 28.1983 103.496 28.8061C105.76 28.7495 108.245 29.2945 110.198 30.3008C113.895 32.207 117.768 32.3361 121.613 30.7797C121.934 30.6497 122.405 30.3892 122.665 30.6255C122.698 30.9338 122.735 30.8013 122.589 31.0443C121.986 31.3753 121.294 31.5181 120.659 31.7338C118.055 32.6175 115.289 32.6884 112.638 31.9209C111.407 31.5647 110.605 31.1198 109.418 30.6004C107.014 29.5479 105.284 29.3316 102.704 29.3919C101.862 29.9697 100.045 31.3916 99.2115 31.6627L99.1005 31.62C99.3925 31.1197 101.18 29.9663 101.747 29.6018C99.034 30.1437 97.8963 31.3489 95.6446 32.9432C97.2198 32.5905 98.9027 32.0455 100.464 31.6135C103.663 30.7285 106.865 31.1352 109.851 32.5183C111.975 33.5018 113.202 34.0854 115.649 34.2031C117.265 34.2808 118.447 34.0578 120.013 33.699C120.645 33.5543 122.141 32.8527 122.64 32.9029C122.762 33.6956 120.032 34.3185 119.361 34.4751C117.025 34.8885 115.388 34.9912 113.033 34.4173C111.536 34.0525 110.475 33.4499 109.1 32.8664C106.033 31.5658 102.843 31.4145 99.671 32.4431C98.8043 32.7241 97.4731 33.0129 96.7284 33.4715C96.4768 33.6261 96.4313 33.7251 96.2058 33.6969L96.1107 33.424C94.931 33.3011 93.4139 34.6387 92.5396 35.3132C97.5875 35.7539 99.2435 33.6041 103.992 33.5085C108.789 33.412 111.068 36.4504 115.657 36.593C118.058 36.6675 119.503 36.3043 121.729 35.4546C122.104 35.3116 122.395 35.0885 122.635 35.3336C122.51 36.0454 121.341 36.2571 120.741 36.4563C118.41 37.2304 115.895 37.4934 113.484 36.9262C110.12 36.1201 108.356 34.327 104.601 34.1387C99.6836 33.8921 97.0852 36.8044 91.8412 35.831L85.9282 40.1761C85.2071 40.6981 84.2537 41.4381 83.53 41.9096C86.5745 44.3484 90.1465 46.9089 93.2885 49.2781L109.288 61.4105L122.25 71.2814C123.891 72.5228 125.786 74.0707 127.424 75.2093L127.442 32.5589C127.441 30.1457 127.516 8.4677 127.388 8.31092ZM90.0017 34.73C90.3787 34.395 90.9467 33.6145 90.8508 33.0966L90.6269 32.9625C90.3307 33.4506 89.9672 33.9981 89.7872 34.5287L89.8351 34.6686L90.0017 34.73ZM10.5392 7.12503L10.5691 66.3103C10.5695 69.1427 10.6309 72.1714 10.5664 74.9822C15.9392 71.0436 21.256 66.9567 26.5895 62.9617L32.8161 58.308C33.6701 57.6699 35.0453 56.7037 35.8391 56.0432L55.0984 41.5417L28.2878 21.3564C24.7753 18.7413 21.2809 16.1025 17.8051 13.4402C16.0136 12.0952 14.1249 10.7992 12.4097 9.36638C11.7274 8.79643 11.0463 7.6127 10.5392 7.12503Z" fill="#191919"/>
<path d="M87.8148 7.83726L112.019 7.83469L112.025 14.2102L95.8356 14.2112C93.2203 14.2097 90.4065 14.2547 87.8047 14.1703L87.8148 7.83726ZM88.3928 13.5518C91.8529 13.4718 95.5916 13.5339 99.0735 13.5393L111.442 13.5427L111.441 8.48171L96.0788 8.47864C93.8918 8.47798 90.515 8.57858 88.3979 8.45039C88.4181 9.96161 88.4997 12.0872 88.3928 13.5518Z" fill="#191919"/>
<path d="M108.337 11.4232C108.469 11.0341 108.752 9.89557 108.932 9.68252C109.243 9.62418 109.246 9.63868 109.546 9.6889C109.612 10.0051 109.689 12.0377 109.533 12.2115C109.183 12.1802 109.312 12.2528 109.099 12.0512C109.083 11.5854 109.102 11.0937 109.111 10.6259C108.84 10.6712 108.825 11.7321 108.37 12.2504L108.208 12.2514C107.997 12.0178 107.538 10.65 107.392 10.2762C107.442 10.7357 107.722 12.202 107.134 12.2824L106.987 12.1688C106.892 11.7056 106.996 10.1945 107.021 9.63752C107.178 9.641 107.531 9.61755 107.636 9.69835C108.033 10.0046 108.179 10.9329 108.337 11.4232Z" fill="#191919"/>
<path d="M102.073 9.6033C103.216 9.60313 104.631 9.69238 103.586 11.0569C103.522 11.1403 103.93 11.9871 103.999 12.1576C103.785 12.2722 103.649 12.2161 103.361 12.2045C103.253 11.6711 103.256 11.5257 102.848 11.1651C102.354 11.1155 102.682 11.8796 102.155 12.2566L102.007 12.2108C101.898 11.9421 101.935 10.1603 101.934 9.7329L102.073 9.6033ZM103.37 10.686C103.354 10.2844 103.42 10.3846 103.202 10.1341C102.872 10.0446 102.766 10.0571 102.417 10.0529C102.447 10.4618 102.38 10.4732 102.582 10.7589C102.841 10.8491 103.089 10.7505 103.37 10.686Z" fill="#191919"/>
<path d="M100.005 9.57231C100.662 9.54281 100.994 9.56468 101.292 10.1823C101.006 10.382 100.594 9.96335 99.8805 10.1804C99.0996 10.9151 99.9419 12.2672 100.752 11.6155C100.838 11.0959 100.534 11.5859 100.268 10.8584C100.557 10.8184 101.102 10.8271 101.413 10.8228C101.421 11.2768 101.437 11.6943 101.393 12.1483L101.25 12.2555C101.084 12.1456 101.074 12.1283 100.886 12.0674C99.0474 12.8811 98.2338 10.5002 100.005 9.57231Z" fill="#191919"/>
<path d="M105.153 9.53228C105.412 9.58573 105.648 9.61009 105.76 9.84146C106.025 10.3872 106.632 11.6497 106.474 12.2256L106.306 12.2892L106.033 12.1485C105.957 11.9317 105.915 11.8287 105.785 11.631C104.635 11.6004 105.04 12.0463 104.333 12.1802C104.225 11.7349 104.928 9.99152 105.153 9.53228Z" fill="#191919"/>
<path d="M96.9076 9.60263C97.5808 9.66313 98.2657 9.48646 98.7176 9.82613L98.7168 9.96269C98.2211 10.2984 97.866 9.9225 97.4167 10.1937L97.4226 10.3528C97.633 10.5783 98.2607 10.792 98.5931 10.9403L98.567 11.0293C98.1378 11.1684 97.8467 11.1361 97.3957 11.134L97.3999 11.6087C97.6086 11.9516 98.6309 11.5103 98.8758 12.0035L98.7327 12.177C98.4004 12.2509 97.2703 12.2161 96.8647 12.2126C96.9042 11.3693 96.8134 10.4271 96.9076 9.60263Z" fill="#191919"/>
<path d="M92.4967 9.61887C92.8728 9.62012 94.0264 9.58482 94.3058 9.7798C94.1535 9.93559 93.339 10.1829 93.0344 10.3208L93.0032 10.429C93.3322 10.6883 93.949 10.6705 94.2478 10.9378L94.1518 11.0438C93.843 11.1749 93.4012 11.1344 93.0512 11.1315C93.0209 11.4186 93.0057 11.4429 93.0604 11.7351C93.4862 11.9508 94.013 11.5963 94.3504 11.9312L94.347 12.1324C94.0618 12.3185 92.9435 12.2407 92.4975 12.2365C92.4824 11.364 92.4824 10.4914 92.4967 9.61887Z" fill="#191919"/>
<path d="M89.8292 9.6241C90.5663 9.62924 91.3043 9.64432 92.0414 9.66934C92.1904 9.85537 92.1374 9.74682 92.1264 10.0389C91.9026 10.263 91.8757 10.0775 91.38 10.1766C91.3068 10.4501 91.3363 11.3167 91.338 11.6511C91.3295 12.0473 91.3397 12.0269 91.1436 12.2844L90.966 12.275C90.4494 11.7524 90.9627 11.041 90.7632 10.2428C90.5007 10.0516 90.5714 10.1147 90.154 10.1346C89.8822 9.93981 89.9664 9.99393 89.8292 9.6241Z" fill="#191919"/>
<path d="M94.8932 9.53444C95.1195 9.55946 95.1119 9.54546 95.2912 9.6797C95.4847 10.2677 95.3576 11.1337 95.3072 11.7752C95.9517 11.7718 96.4044 11.5923 96.6207 12.2062C96.0316 12.2587 95.3719 12.2355 94.7762 12.2284C94.7829 11.6072 94.7005 10.018 94.8932 9.53444Z" fill="#191919"/>
<path d="M15.5406 7.20707C17.38 7.15196 31.4286 7.101 32.0867 7.37694L32.0747 7.55527C31.9726 7.61063 31.9461 7.64766 31.8415 7.64692C26.4222 7.60988 20.9673 7.75796 15.5522 7.70832C16.875 8.75616 18.4491 9.83574 19.8309 10.8453L28.8915 17.5049C31.4838 19.3788 34.0226 21.3112 36.6223 23.1626C36.8903 23.3535 37.4783 23.8384 37.5284 24.1645C37.084 24.0877 33.607 21.4297 32.9869 20.9751L24.4089 14.6922L18.2395 10.232C16.9231 9.28137 15.5096 8.31954 14.2941 7.25994L15.5406 7.20707Z" fill="#191919"/>
<path d="M110.161 4.79194C112.294 4.70833 114.684 4.75415 116.833 4.75258C119.699 4.7399 122.565 4.74255 125.43 4.76045C124.152 9.22642 120.973 11.0714 117.391 13.6494L110.887 18.2954C110.745 18.1886 110.805 18.2585 110.72 18.0736C110.834 17.8412 111.917 17.0927 112.226 16.8638L118.362 12.4118C121.7 9.95084 123.167 9.15176 124.806 5.25914C123.629 5.15986 121.813 5.20005 120.598 5.19666L113.564 5.17892C113.018 5.17743 110.325 5.27356 110.066 4.98411L110.161 4.79194Z" fill="#191919"/>
<path d="M12.5787 4.20334C13.4317 4.1697 16.494 4.14558 17.1618 4.18685C18.5436 4.27229 30.2461 4.04233 30.6197 4.36849L30.5565 4.55809C29.2895 4.68968 13.0827 4.75407 12.7354 4.56638C12.615 4.50141 12.6125 4.32499 12.5787 4.20334Z" fill="#191919"/>
<path d="M33.0204 5.29759L43.9722 5.3309C45.6006 5.33463 47.2482 5.3372 48.8768 5.35302C49.1375 5.35559 49.1845 5.40904 49.3469 5.54875L49.303 5.68499L49.1013 5.75956C44.1736 5.76992 39.2391 5.73661 34.3127 5.7802C33.9583 5.78335 32.8994 5.77398 32.6575 5.5258L32.6977 5.39595L33.0204 5.29759Z" fill="#191919"/>
<path d="M57.6448 4.78349C57.7138 4.77719 57.783 4.77098 57.8521 4.76468C62.9378 4.7143 68.0269 4.7486 73.1136 4.77413C73.3416 4.77529 73.4594 4.80114 73.6226 4.94433L73.5553 5.11147C73.2793 5.14918 72.9166 5.15887 72.6348 5.16086C67.7913 5.19467 62.9472 5.14288 58.1047 5.17188C57.917 5.17296 57.774 5.11678 57.6396 4.9904L57.6448 4.78349Z" fill="#191919"/>
<path d="M19.269 8.92562C20.4188 8.82411 22.8911 8.82013 23.9617 9.20712C22.8186 9.42539 21.1811 9.34351 19.9906 9.3165C22.1491 10.9356 24.3201 12.5384 26.5035 14.1247C27.2917 14.6753 28.0033 15.1339 28.6107 15.8756C28.44 15.8 28.0025 15.6096 27.8231 15.4834C24.9952 13.4928 22.0168 11.4601 19.3302 9.30639C19.1851 9.19005 19.2451 9.06285 19.269 8.92562Z" fill="#191919"/>
<path d="M13.2345 5.45197C16.6427 5.31789 20.1649 5.50906 23.581 5.44583C24.1023 5.43622 26.6045 5.37714 26.8258 5.66841L26.6909 5.83124C23.9425 5.89977 21.0619 5.83622 18.3005 5.87144C17.1972 5.88552 14.2528 5.94924 13.2938 5.80978C13.1619 5.61264 13.202 5.72327 13.2345 5.45197Z" fill="#191919"/>
<path d="M45.258 6.5419C46.6209 6.47147 56.027 6.40136 56.7366 6.72288C56.7134 6.864 56.749 6.81478 56.6556 6.88571L56.6997 6.78876L56.5921 6.91024L56.3457 6.9235L49.3582 6.93991C48.6569 6.9448 45.093 7.10647 44.8262 6.67175C45.0335 6.55251 45.0036 6.58773 45.258 6.5419Z" fill="#191919"/>
<path d="M119.764 5.87898C120.343 5.86207 122.782 5.65342 123.053 6.0849C122.933 6.80434 121.186 8.8106 120.503 9.06691C120.496 8.98752 120.489 8.90814 120.482 8.82883C121.19 8.01377 121.913 7.23698 122.423 6.33333C121.351 6.21251 120.453 6.34303 119.414 6.23481C119.232 6.21591 119.274 6.20414 119.174 6.04479L119.267 5.92546L119.764 5.87898Z" fill="#191919"/>
<path d="M109.425 18.9218C109.547 19.0071 109.493 18.963 109.563 19.1305C109.349 19.5604 104.522 22.9867 103.873 23.3094C103.773 23.2587 103.834 23.2977 103.717 23.1611C103.903 22.7476 108.69 19.4376 109.425 18.9218Z" fill="#191919"/>
<path d="M67.1442 41.0636C68.5663 41.3055 69.486 41.555 70.9544 41.1928C71.4668 41.0669 72.4505 40.5009 72.6238 40.5109C72.8005 41.1754 71.1184 41.5185 70.622 41.6461C69.5247 41.9287 68.1262 41.8665 67.1366 41.2964L67.1442 41.0636Z" fill="#191919"/>
<path d="M75.7978 4.78713C76.2228 4.76824 76.8825 4.72266 77.2594 4.90936L77.2679 5.03209L77.0878 5.13202C76.7352 5.13691 75.8828 5.23511 75.7036 4.93339L75.7978 4.78713Z" fill="#191919"/>
<path d="M58.447 6.61449C58.8924 6.54091 59.9052 6.34568 60.011 6.88853C59.5129 6.92781 58.6593 7.11409 58.447 6.61449Z" fill="#191919"/>
<path d="M67.1366 41.2964C66.7252 41.0279 65.7016 40.7719 65.6993 40.2614L65.8355 40.2183C66.3149 40.3957 66.6962 40.7677 67.1442 41.0636L67.1366 41.2964Z" fill="#191919"/>
<path d="M32.1606 4.3027C32.6615 4.24113 33.4076 4.04781 33.6732 4.52959C33.1052 4.62853 32.5918 4.73302 32.1606 4.3027Z" fill="#191919"/>
<path d="M52.7896 32.9995C53.3713 32.9963 53.8312 33.3907 54.1025 33.8687C53.5362 33.8554 53.0843 33.4479 52.7896 32.9995Z" fill="#191919"/>
<path d="M106.392 4.79475C106.862 4.74421 107.253 4.59737 107.43 5.0702C107.078 5.11885 106.716 5.20163 106.421 5.00888L106.392 4.79475Z" fill="#191919"/>
<path d="M29.6233 16.5267C30.106 16.6286 30.3289 16.8349 30.5873 17.2309C30.1293 17.3054 29.7298 16.9542 29.6233 16.5267Z" fill="#191919"/>
<path d="M55.519 4.7815C55.9133 4.72142 56.1107 4.65637 56.4427 4.84588L56.498 5.06672C56.0182 5.10517 55.7257 5.24969 55.519 4.7815Z" fill="#191919"/>
<path d="M98.7529 74.5737C100.302 74.4187 103.655 74.5381 105.366 74.5182C110.581 74.4577 115.861 74.5919 121.078 74.5049C121.561 74.4966 122.096 74.437 122.435 74.7494L122.438 75.027C120.07 75.1049 99.6281 75.1886 98.7092 74.8894L98.6436 74.7461L98.7529 74.5737Z" fill="#191919"/>
<path d="M14.4834 75.1571C16.662 75.0676 38.6534 75.0783 39.1901 75.3079L39.218 75.4272L39.0345 75.5954C33.6808 75.7288 27.8741 75.6253 22.483 75.6278L17.0837 75.6302C16.4649 75.6319 14.457 75.7794 14.1414 75.3907C14.2556 75.1678 14.1711 75.2648 14.4834 75.1571Z" fill="#191919"/>
<path d="M63.9853 74.7411L78.7101 74.751C79.7418 74.7577 82.8476 74.6557 83.6605 74.8844L83.6924 74.9839C83.0437 75.2449 81.2421 75.167 80.4721 75.167L67.1787 75.1877C65.6913 75.1877 61.9529 75.2731 60.7427 75.0883L60.6363 74.9383L60.5854 74.9317L60.4763 74.9565C61.3703 74.6856 63.0048 74.7477 63.9853 74.7411Z" fill="#191919"/>
<path d="M33.0764 73.2396C34.0987 73.1956 35.3166 73.2321 36.3619 73.2271L43.705 73.2139C46.9174 73.2164 50.1632 73.2139 53.3781 73.2304C53.6375 73.2321 53.8179 73.2835 54.0361 73.421L54.0201 73.5486L53.8144 73.6323C49.2959 73.6937 44.777 73.7185 40.2581 73.7069L35.9636 73.7028C35.3388 73.7044 33.3439 73.7881 32.9062 73.5578L32.8801 73.4119L33.0764 73.2396Z" fill="#191919"/>
<path d="M103.792 61.4096C104.436 61.5198 106.717 63.3984 107.375 63.8973L112.489 67.7538C113.429 68.4706 116.632 70.8124 117.268 71.4704C115.634 71.5027 113.901 71.4596 112.261 71.4447C111.881 71.4289 111.504 71.4264 111.131 71.3643L111.1 71.2209L111.186 71.1174C111.716 70.9723 115.311 71.032 116.042 71.0577C114.828 69.992 112.976 68.7225 111.651 67.6983C110.707 66.9699 109.651 66.0617 108.721 65.3756C107.191 64.2486 105.522 63.1506 104.052 61.9168C103.826 61.7262 103.864 61.6847 103.792 61.4096Z" fill="#191919"/>
<path d="M18.9684 71.7331C20.0747 71.6676 21.7207 71.7123 22.88 71.7107L30.6644 71.7355C31.521 71.7422 35.9189 71.7347 36.5117 71.8499L36.5889 71.9709L36.4549 72.1325C32.5089 72.2783 28.366 72.1515 24.4001 72.2369C23.7294 72.251 19.3185 72.2957 18.9305 72.1847C18.8206 71.9618 18.8615 72.0778 18.9684 71.7331Z" fill="#191919"/>
<path d="M85.5992 72.7448C86.6737 72.6181 102.744 72.6007 103.202 72.7341C103.432 72.8004 103.439 72.9155 103.521 73.1136C101.417 73.1824 86.3178 73.2785 85.7431 73.0108C85.6135 72.9503 85.6337 72.87 85.5992 72.7448Z" fill="#191919"/>
<path d="M105.134 72.7473C108.644 72.5402 115.543 72.8045 119.32 72.7597C119.483 72.7573 119.587 72.9305 119.644 73.0813L119.514 73.2172C115.039 73.3174 110.468 73.1501 105.984 73.1973C105.613 73.2014 105.14 73.218 104.867 72.9644L104.911 72.836L105.134 72.7473Z" fill="#191919"/>
<path d="M16.2778 73.5611C18.3094 73.4351 20.8137 73.5959 22.8829 73.552C24.0928 73.5263 25.5561 73.6058 26.7838 73.6406C26.9611 73.6456 26.9146 73.639 27.0287 73.7873L26.9378 73.9555C24.4624 74.0193 21.9863 74.0467 19.5101 74.0392C18.9756 74.0417 16.7498 74.0947 16.3449 73.9887C16.1877 73.76 16.2326 73.8917 16.2778 73.5611Z" fill="#191919"/>
<path d="M57.528 45.1845C58.2941 45.3444 60.4208 46.5418 60.6293 47.2139L60.6152 47.2246C59.9368 46.9495 59.5055 46.6222 58.8964 46.2278C58.3026 46.5219 57.7505 46.8053 57.1286 47.0432C57.6712 46.4523 57.8895 46.2924 58.5289 45.8284C56.8407 45.1903 55.6077 47.4418 54.1737 47.9215L54.07 47.847C54.1816 47.5594 57.0765 45.3817 57.528 45.1845Z" fill="#191919"/>
<path d="M24.7435 67.9776L24.837 68.1524C24.7207 68.5137 22.8728 69.7733 22.417 70.1404C23.0582 70.1545 26.4096 69.9738 26.6357 70.3857C26.4202 70.5356 26.1745 70.5108 25.8788 70.5398C24.3398 70.5332 22.8087 70.568 21.263 70.5522C21.8902 69.9224 23.9494 68.4731 24.7435 67.9776Z" fill="#191919"/>
<path d="M81.6973 44.2688C82.1138 44.2788 82.4504 44.4544 82.7828 44.6881C83.2364 45.0063 85.7422 46.8517 85.7793 47.2321C85.1759 47.0713 83.9642 46.0902 83.4147 45.68C82.9174 45.2831 82.4361 44.9898 81.8749 44.6931C80.8071 45.2118 80.0354 46.0538 78.8582 46.5319C79.5945 45.5914 80.685 44.9061 81.6973 44.2688Z" fill="#191919"/>
<path d="M96.7688 56.1228C97.3292 56.2454 102.297 59.9247 102.678 60.455L102.616 60.6912C102.275 60.6125 101.593 60.0639 101.292 59.8343C99.8048 58.6949 98.2868 57.5837 96.8487 56.3846C96.8218 56.2976 96.7957 56.2098 96.7688 56.1228Z" fill="#191919"/>
<path d="M54.0373 74.7444C54.7591 74.6972 58.2099 74.6665 58.7549 74.867L58.8061 75.0046L58.6776 75.1231C57.9553 75.1256 54.0871 75.2615 53.7619 74.9781L53.7925 74.8273L54.0373 74.7444Z" fill="#191919"/>
<path d="M85.7456 74.8198C86.4087 74.7129 87.5371 74.7361 88.2262 74.7701C88.5839 74.7867 88.5855 74.8355 88.7639 75.0435C88.2877 75.1902 86.6771 75.1761 86.11 75.1057C85.8499 75.0734 85.8887 75.0278 85.7456 74.8198Z" fill="#191919"/>
<path d="M38.9049 57.5298L39.079 57.6036L39.0817 57.747C38.8107 58.0933 38.3471 58.3809 37.977 58.6444L37.7885 58.5499L37.8075 58.3883C38.0991 58.0544 38.5326 57.7892 38.9049 57.5298Z" fill="#191919"/>
<path d="M56.2328 73.3232C56.7652 73.2868 57.5841 73.0962 57.8264 73.6158C57.3543 73.6406 56.7104 73.7218 56.2899 73.5577L56.2328 73.3232Z" fill="#191919"/>
<path d="M92.9662 74.553C93.3398 74.5265 93.6781 74.4262 93.9389 74.7005L93.912 74.9424C93.5241 74.9474 93.2228 74.9988 92.9367 74.7809L92.9662 74.553Z" fill="#191919"/>
<path d="M38.6314 71.825C39.0786 71.7935 39.6389 71.6353 39.7197 72.1399C39.3352 72.1623 38.9199 72.2377 38.6234 72.0247L38.6314 71.825Z" fill="#191919"/>
<path d="M83.376 72.7308C83.7614 72.7018 84.0484 72.6421 84.3563 72.8426L84.3673 73.0266L84.2638 73.0365C83.8834 73.0689 83.6226 73.1376 83.35 72.9131L83.376 72.7308Z" fill="#191919"/>
<path d="M28.225 73.6539C28.7455 73.6083 28.9753 73.4633 29.2208 73.9555C28.8417 73.9787 28.547 74.0458 28.2401 73.871L28.225 73.6539Z" fill="#191919"/>
<path d="M12.2533 46.0935C12.4188 46.3421 12.4233 46.715 12.4196 47.0084C12.3175 55.1508 12.5433 63.3288 12.45 71.4662C18.2528 67.2359 23.9743 62.7529 29.7685 58.482C31.4094 57.2721 33.5697 55.4996 35.3123 54.3635C35.4238 54.2906 35.4262 54.318 35.569 54.3843C35.4762 54.7083 35.4643 54.6345 35.1593 54.903C30.0122 58.8557 24.8399 62.7761 19.6428 66.6641C18.1406 67.7886 16.6444 68.9198 15.1542 70.0592C14.2294 70.7619 12.9583 71.7712 11.9866 72.3405C11.9341 70.4171 11.9774 68.2941 11.9762 66.3567L11.9637 56.2512L11.982 50.1465C11.985 49.4165 11.8819 46.4847 12.2533 46.0935Z" fill="#191919"/>
<path d="M15.2367 14.9576C15.7722 15.1733 16.4679 15.754 16.9433 16.1187C20.8167 19.0903 24.8738 21.829 28.7019 24.857C29.0039 25.0959 29.1961 25.3248 29.4129 25.6386C29.01 25.4566 28.6473 25.2106 28.2895 24.9549C26.0236 23.3357 23.8189 21.6316 21.5249 20.0507C19.7658 18.7716 17.4571 16.9707 15.6821 15.8084C15.6758 19.9471 15.6053 24.0927 15.5847 28.2315C15.584 28.3593 15.5113 28.5017 15.4525 28.6119L15.3496 28.6078C15.2357 28.3234 15.1902 27.9548 15.1925 27.6476C15.2171 24.3406 15.1953 21.0356 15.1801 17.7287C15.1762 16.872 15.1227 15.7921 15.2367 14.9576Z" fill="#191919"/>
<path d="M11.7379 10.0369C12.7599 10.7418 13.9178 11.6736 14.9374 12.4262C15.7714 13.0416 17.0698 13.973 17.8058 14.6261C17.61 14.8601 17.6724 14.7287 17.628 15.0418C16.0798 13.8405 13.8208 12.1184 12.2327 11.0544C12.2465 12.8458 12.2289 29.924 12.0275 30.2388L11.9573 30.2083C11.5442 29.0913 11.8173 23.0081 11.7905 21.5013C11.7233 17.7417 11.6957 13.8022 11.7379 10.0369Z" fill="#191919"/>
<path d="M39.9365 33.092C40.1225 33.1198 40.2935 33.1555 40.4498 33.2654C44.4191 36.056 48.2592 39.0632 52.1843 41.9096C51.4432 42.5726 50.2512 43.4145 49.4288 44.0343C47.6144 45.4066 45.7875 46.7631 43.9483 48.103C43.7696 48.2389 43.7852 48.2348 43.5603 48.2472L43.5195 48.1113C43.9195 47.5329 50.4248 42.7167 51.4477 41.9776C48.9472 40.0253 46.4192 38.1069 43.8644 36.2244C42.6389 35.314 41.3786 34.3866 40.1557 33.4673C40.0187 33.3643 39.982 33.2467 39.9365 33.092Z" fill="#191919"/>
<path d="M13.9753 55.7424L14.1577 55.8692C14.3225 56.2736 14.3203 66.5979 14.324 67.7058C15.748 66.8473 20.3392 63.0487 21.3503 62.723L21.4562 62.7761C21.3975 63.0031 21.2526 63.0918 21.073 63.2526C19.5594 64.4135 18.0378 65.5637 16.5085 66.7039C15.6845 67.3246 14.6988 68.1317 13.8446 68.6596C13.7996 66.0228 13.8723 63.2824 13.8464 60.6357C13.8373 59.7125 13.8061 56.4186 13.9753 55.7424Z" fill="#191919"/>
<path d="M24.4511 19.9118C24.8239 19.9327 25.3645 20.3154 25.6133 20.5418C26.8751 21.6899 36.5806 28.3832 36.9337 29.2848C36.8692 29.2832 36.6607 29.2886 36.5819 29.2291C32.5885 26.2148 28.4936 23.2931 24.5635 20.2063C24.526 20.1081 24.4885 20.01 24.4511 19.9118Z" fill="#191919"/>
<path d="M13.539 13.3141C13.7607 13.3877 13.6946 13.36 13.8905 13.489C14.07 14.3127 13.9963 23.7508 13.8429 24.797C13.7901 24.8579 13.732 24.8791 13.6557 24.9235L13.5538 24.8631C13.4386 24.5051 13.407 14.1465 13.539 13.3141Z" fill="#191919"/>
<path d="M17.0867 18.5299C17.6955 18.716 22.1789 22.028 22.4666 22.5163L22.4169 22.6093C21.9226 22.5367 20.6451 21.5004 20.1817 21.1548C19.2347 20.4801 18.3516 19.7823 17.3723 19.1369C17.37 20.0537 17.4241 22.0141 17.317 22.8552L17.1748 22.9469L17.0419 22.8922C16.88 22.3846 16.8953 19.1526 17.0867 18.5299Z" fill="#191919"/>
<path d="M13.6229 26.012L13.785 26.1329C14.0274 26.6134 13.8612 34.3237 13.8147 35.3181C13.5955 35.2337 13.6863 35.2933 13.5511 35.1199C13.4142 34.1932 13.3292 26.5166 13.6229 26.012Z" fill="#191919"/>
<path d="M15.7579 60.0631L15.928 60.1675C16.1317 60.5619 16.0666 63.797 16.0494 64.421C16.7883 64 18.6651 62.4123 19.274 62.2507L19.3842 62.3245L19.353 62.5026C18.7108 63.0479 16.3149 64.8204 15.6903 65.18C15.6672 64.2619 15.6164 60.7716 15.7579 60.0631Z" fill="#191919"/>
<path d="M45.4201 38.8917C46.0435 39.0872 48.9678 41.3486 49.685 41.8873C49.1584 42.3952 47.3742 43.62 46.6938 44.1147C46.4766 44.215 46.539 44.2191 46.3203 44.2282C46.2746 44.1379 46.289 44.1893 46.2893 44.0699C46.695 43.5504 48.4317 42.3571 49.0296 41.9287C48.0856 41.11 46.7655 40.2697 45.7815 39.4427C45.4514 39.1651 45.4562 39.2215 45.4201 38.8917Z" fill="#191919"/>
<path d="M46.5673 36.3987C47.1226 36.5093 53.2625 41.0404 53.4971 41.5268C53.3477 41.555 53.1724 41.5939 53.037 41.4978C50.9256 39.9946 48.8776 38.3862 46.829 36.7998C46.6801 36.6844 46.6303 36.5652 46.5673 36.3987Z" fill="#191919"/>
<path d="M17.8058 14.6261C18.461 15.085 23.5071 18.8343 23.6204 19.2087L23.5536 19.3048C23.4928 19.3077 23.432 19.3106 23.3712 19.3134C21.7297 18.1764 19.1428 16.1414 17.628 15.0418C17.6724 14.7287 17.61 14.8601 17.8058 14.6261Z" fill="#191919"/>
<path d="M11.9102 31.0743L12.0741 31.1896C12.2407 31.6646 12.1866 35.7494 12.1124 36.4195L11.9074 36.2918C11.7097 35.9044 11.7513 31.5912 11.9102 31.0743Z" fill="#191919"/>
<path d="M41.7635 32.749C42.2969 32.9024 45.5919 35.2663 45.7095 35.7605C45.4991 35.7368 45.3153 35.6965 45.1467 35.5612C44.471 35.0188 41.931 33.485 41.7635 32.749Z" fill="#191919"/>
<path d="M25.2949 59.6835C25.4771 59.686 25.3901 59.662 25.5534 59.7631C25.4234 60.1658 22.6984 62.0742 22.2059 62.3734C22.1662 62.3858 22.0121 62.3957 21.964 62.4007L21.9357 62.283C22.3029 61.6806 24.6014 60.1335 25.2949 59.6835Z" fill="#191919"/>
<path d="M15.3584 30.4249L15.5076 30.619C15.5713 31.1084 15.604 31.7703 15.3922 32.2296C15.0433 31.8201 15.1194 30.8741 15.3584 30.4249Z" fill="#191919"/>
<path d="M13.5183 36.93C13.7257 36.991 13.6391 36.9312 13.7947 37.0889C13.9009 37.597 13.8349 37.9902 13.7924 38.5072C13.5828 38.4773 13.6746 38.5229 13.5226 38.3613C13.4271 37.8791 13.4875 37.4234 13.5183 36.93Z" fill="#191919"/>
<path d="M12.2311 42.6803L12.3581 42.788C12.5645 43.2355 12.4355 43.6341 12.3354 44.1031C11.8933 43.7998 11.9754 43.078 12.2311 42.6803Z" fill="#191919"/>
<path d="M38.2744 52.0557C38.4213 52.2273 38.3794 52.132 38.3776 52.3557C38.1418 52.6913 37.8747 52.8115 37.52 53.0294L37.4131 52.8976L37.4421 52.7435C37.7098 52.4038 37.9162 52.2969 38.2744 52.0557Z" fill="#191919"/>
<path d="M13.9312 52.5189C14.0917 52.5753 14.0549 52.5712 14.1957 52.6822C14.316 53.0402 14.2485 53.3807 14.2171 53.7661C14.0369 53.7528 14.1265 53.7777 13.9527 53.6766C13.8288 53.3103 13.9003 52.915 13.9312 52.5189Z" fill="#191919"/>
<path d="M38.7613 30.5902C39.1724 30.6309 39.5342 30.876 39.6395 31.2798C39.147 31.2539 38.8221 31.0868 38.7613 30.5902Z" fill="#191919"/>
<path d="M27.1765 58.1779L27.4153 58.2193L27.4775 58.332C27.3828 58.5541 27.1545 58.68 26.9494 58.8325C26.7774 58.796 26.8646 58.8317 26.6975 58.704C26.8029 58.4107 26.8925 58.4157 27.1765 58.1779Z" fill="#191919"/>
<path d="M30.3745 26.2336C30.8442 26.423 30.9482 26.4343 31.1043 26.9189C30.6742 26.8478 30.3077 26.7045 30.3745 26.2336Z" fill="#191919"/>
<path d="M126.191 31.0722L126.374 31.1778C126.614 31.6598 126.455 41.0081 126.447 42.2742L126.379 58.3643L126.355 68.1698C126.347 69.6689 126.39 71.6295 126.277 73.0954C125.225 72.3728 114.396 64.2088 114.169 63.8243L114.235 63.7191C115.379 63.9412 121.95 69.6167 123.858 70.5878C123.882 69.9349 123.881 69.2462 123.89 68.5899C123.908 64.1757 123.839 55.9247 123.978 51.1732C124.018 51.1285 124.057 51.0837 124.096 51.039L124.227 51.126C124.481 51.8585 124.322 54.545 124.327 55.4897C124.371 58.6245 124.382 61.7593 124.358 64.8941C124.349 66.0692 124.348 67.2434 124.357 68.4184C124.364 69.2512 124.413 70.2962 124.316 71.0983C124.928 71.4787 125.258 71.7538 125.818 72.2186C125.715 67.3826 125.899 62.607 125.915 57.8016L125.987 40.9194C125.993 39.3988 125.902 31.8794 126.191 31.0722Z" fill="#191919"/>
<path d="M122.287 56.1808C122.326 56.2106 122.369 56.2363 122.403 56.2711C122.681 56.5429 122.585 66.9426 122.539 68.1789C121.537 67.545 120.281 66.5324 119.302 65.7999C117.298 64.3273 115.315 62.8275 113.354 61.2994C113.096 61.0964 112.885 60.9845 112.789 60.6829L112.852 60.5917C113.536 60.7691 120.877 66.4934 122.097 67.2641C122.063 65.809 121.998 57.152 122.287 56.1808Z" fill="#191919"/>
<path d="M89.5945 38.6373L89.7686 38.653L89.8057 38.7616C89.3765 39.3482 86.5214 41.3138 85.7725 41.8524C87.0482 42.7615 88.4046 43.8711 89.682 44.7942C90.4376 45.3403 93.8935 47.7409 94.0079 48.2431L93.8203 48.2638C92.9645 47.8544 90.6976 46.1068 89.841 45.4704C88.275 44.3061 86.4996 43.0772 84.979 41.8781C86.5088 40.786 88.0478 39.7054 89.5945 38.6373Z" fill="#191919"/>
<path d="M124.647 12.7296C124.817 12.7698 124.819 12.7805 124.979 12.8538C125.046 12.9873 125.037 27.7673 124.959 28.9411C124.741 28.9203 124.839 28.9584 124.664 28.8252C124.55 27.9556 124.58 26.4442 124.579 25.5426L124.575 15.659C124.576 14.791 124.539 13.5519 124.647 12.7296Z" fill="#191919"/>
<path d="M91.8992 38.469C92.0196 38.566 91.9665 38.5022 92.0381 38.6754C91.7882 39.1096 88.7437 41.2666 88.1412 41.7099C89.5364 42.8013 90.9442 43.876 92.3654 44.9342C92.7844 45.2508 94.8931 46.7515 94.8923 47.0747L94.666 47.1318C92.8619 45.9121 91.1226 44.4321 89.3302 43.1849C88.7269 42.7656 88.0058 42.2287 87.4807 41.7224C87.9267 41.2923 91.3001 38.8212 91.8992 38.469Z" fill="#191919"/>
<path d="M94.2721 48.5828C94.3756 48.5828 94.4531 48.5812 94.5557 48.5903C95.0303 48.635 104.31 55.5668 105.011 56.4029C104.449 56.417 94.8586 49.3419 94.2721 48.5828Z" fill="#191919"/>
<path d="M121.8 17.3151C121.883 17.3492 121.93 17.3984 122.004 17.4563C122.132 17.9419 122.202 19.9327 121.827 20.3139C121.565 19.9007 121.616 18.5381 121.615 17.9991C120.329 18.8123 118.686 20.0272 117.412 20.9055C116.714 21.3893 116.09 21.8847 115.292 22.1733C116.039 21.2889 120.627 18.1232 121.8 17.3151Z" fill="#191919"/>
<path d="M126.091 10.9175L126.337 10.9757C126.377 11.0206 126.416 11.0655 126.456 11.1104C126.555 13.6879 126.451 17.7397 126.421 20.1561C126.337 20.1174 126.19 20.0712 126.18 20.0027C125.993 18.682 125.904 11.9174 126.091 10.9175Z" fill="#191919"/>
<path d="M115.319 60.7724C115.862 60.8279 119.477 63.6246 120.383 64.1873C120.389 63.7788 120.333 61.9466 120.646 61.727C120.833 61.9797 120.777 61.8886 120.792 62.2507C120.802 63.1597 120.818 64.0265 120.736 64.9339C119.561 64.2387 116.58 61.9408 115.379 60.9845C115.358 60.9133 115.338 60.8428 115.319 60.7724Z" fill="#191919"/>
<path d="M104.039 53.9741C104.822 54.052 109.752 58.148 110.746 58.7645C110.952 58.8913 111 59.0529 111.068 59.2675C111 59.2609 110.76 59.2419 110.655 59.1673C108.453 57.5903 106.231 55.9231 104.124 54.2243C104.095 54.1415 104.068 54.0578 104.039 53.9741Z" fill="#191919"/>
<path d="M106.51 57.6168C106.549 57.6243 106.707 57.6475 106.773 57.6939C108.275 58.7703 109.897 59.9015 111.276 61.1196C111.3 61.2049 111.324 61.2895 111.348 61.3748C111.133 61.335 111.032 61.3102 110.799 61.137C109.395 60.0896 107.86 59.0314 106.558 57.8704C106.542 57.7859 106.526 57.7014 106.51 57.6168Z" fill="#191919"/>
<path d="M126.163 21.8806C126.599 22.1833 126.412 23.4227 126.384 23.9494C125.846 23.6883 126.03 22.3625 126.163 21.8806Z" fill="#191919"/>
<path d="M124.069 47.9762C124.162 48.0351 124.195 48.0798 124.275 48.1569C124.386 48.7079 124.346 49.0933 124.242 49.6452C123.737 49.3377 123.93 48.4569 124.069 47.9762Z" fill="#191919"/>
<path d="M123.271 23.349C123.754 23.6748 123.532 24.454 123.464 24.9683C123.401 24.9402 123.319 24.8793 123.259 24.8392C123.133 24.3094 123.203 23.8891 123.271 23.349Z" fill="#191919"/>
<path d="M126.235 27.4288L126.391 27.5714C126.556 28.0014 126.505 28.2377 126.378 28.6832L126.166 28.4974C126.039 28.0957 126.044 27.808 126.235 27.4288Z" fill="#191919"/>
<path d="M121.812 20.8753L121.976 20.9912C122.124 21.4004 122.078 21.6324 121.931 22.0397C121.766 21.9312 121.775 21.9337 121.657 21.776C121.577 21.4204 121.687 21.2302 121.812 20.8753Z" fill="#191919"/>
<path d="M124.715 30.3867L124.899 30.5017C125.09 30.8345 124.989 31.2236 124.922 31.5869C124.734 31.485 124.8 31.5333 124.663 31.3596C124.572 30.9922 124.648 30.7587 124.715 30.3867Z" fill="#191919"/>
<path d="M113.418 59.28C113.88 59.3587 114.114 59.5253 114.33 59.9247C113.858 60.0042 113.546 59.6968 113.418 59.28Z" fill="#191919"/>
<path d="M76.4045 33.4837C76.7722 33.6466 77.5632 34.8863 78.0723 35.405C78.7471 36.0905 79.5423 36.65 80.42 37.0564C81.4095 37.5163 82.4084 37.2835 82.8493 37.8209C80.7927 38.4442 76.5955 35.5434 76.4045 33.4837Z" fill="#191919"/>
<path d="M81.9447 22.4265C82.1551 22.401 82.495 22.353 82.6633 22.4891C82.3974 22.8653 80.7212 23.0213 79.8873 23.5311C78.2381 24.5395 77.7046 25.0921 76.6999 26.6794C76.5736 26.8956 76.5223 26.9466 76.2758 26.9054C76.2825 26.6365 76.6368 26.0518 76.7983 25.8086C78.0083 23.9923 79.8166 22.8821 81.9447 22.4265Z" fill="#191919"/>
<path d="M88.6697 35.244C88.8868 36.116 86.3372 37.3942 85.6009 37.6072C85.2163 37.7185 84.8637 37.7876 84.4674 37.8465L84.4455 37.6846C84.5911 37.454 85.0337 37.3905 85.3274 37.3067C86.6796 36.9202 87.58 36.0948 88.6697 35.244Z" fill="#191919"/>
<path d="M80.9156 23.6352C81.0687 23.6303 81.1007 23.6529 81.2539 23.6886L81.3094 23.8236C81.0788 24.0512 80.5563 24.1893 80.2105 24.377C79.1317 24.9643 78.5233 25.6642 77.766 26.5902C77.6188 26.6721 77.7021 26.6462 77.5127 26.655L77.4782 26.5301C77.9848 25.2543 79.7131 24.1991 80.9156 23.6352Z" fill="#191919"/>
<path d="M85.5176 23.8295C86.2682 23.7137 88.1581 24.8848 88.1816 25.6731C87.9536 25.6272 87.4496 25.2093 87.2501 25.027C86.874 24.6833 85.6825 24.1876 85.5176 23.8295Z" fill="#191919"/>
<path d="M75.5891 30.8135C76.089 31.011 76.1395 32.2558 76.2143 32.7538C75.5908 32.5285 75.59 31.3833 75.5891 30.8135Z" fill="#191919"/>
<path d="M76.0587 27.5965C76.0991 27.6317 76.1723 27.7344 76.2085 27.7819C76.1891 28.2226 75.9922 28.7852 75.8643 29.2228C75.3569 28.8756 75.8071 28.0066 76.0587 27.5965Z" fill="#191919"/>
<path d="M88.0058 34.5738L88.1859 34.6792C87.7567 35.5353 86.6333 36.1713 85.7372 36.4801C86.1386 36.0571 87.41 35.1218 88.0058 34.5738Z" fill="#191919"/>
<path d="M88.7959 27.0177C88.6487 26.6203 88.5679 26.6187 88.6571 26.2897C89.0711 26.3178 89.2057 26.9135 89.257 27.2546L89.1199 27.2548C89.034 27.1883 88.9583 27.1306 88.8683 27.0679L88.7959 27.0177Z" fill="#191919"/>
</svg>