<svg viewBox="0 0 15.4615 21.0963" fill="none" xmlns="http://www.w3.org/2000/svg">
<path id="Vector" d="M10.1475 21.0963V15.27L7.346 12.6488L6.28725 17.3835L0 16.0898L0.24625 14.897L5.13075 15.8873L6.9705 6.50525L4.255 7.69825V10.9848H2.99875V6.8475L7.04225 5.1565C7.51958 4.95183 7.86683 4.81967 8.084 4.76C8.301 4.7005 8.51017 4.67075 8.7115 4.67075C9.0055 4.67075 9.27367 4.7415 9.516 4.883C9.75833 5.02467 9.9615 5.224 10.1255 5.481L11.1525 7.118C11.5795 7.80517 12.1655 8.39917 12.9105 8.9C13.6557 9.401 14.506 9.67067 15.4615 9.709V10.9655C14.438 10.9377 13.4722 10.6634 12.564 10.1427C11.656 9.62192 10.8426 8.828 10.1238 7.761L9.1935 11.9808L11.4038 14.0732V21.0963H10.1475ZM8.96575 3.0075C8.62192 2.66367 8.45 2.24842 8.45 1.76175C8.45 1.27492 8.62192 0.859584 8.96575 0.51575C9.30958 0.171917 9.72483 0 10.2115 0C10.6982 0 11.1134 0.171917 11.4573 0.51575C11.8011 0.859584 11.973 1.27492 11.973 1.76175C11.973 2.24842 11.8011 2.66367 11.4573 3.0075C11.1134 3.35133 10.6982 3.52325 10.2115 3.52325C9.72483 3.52325 9.30958 3.35133 8.96575 3.0075Z" fill="#262626"/>
</svg>
