<svg viewBox="0 0 19 19" fill="none" xmlns="http://www.w3.org/2000/svg">
<path id="Vector" d="M9.48075 19C8.18458 19 6.96025 18.7503 5.80775 18.251C4.65508 17.7517 3.64867 17.0718 2.7885 16.2115C1.92817 15.3513 1.24833 14.3433 0.749 13.1875C0.249667 12.0317 0 10.8025 0 9.5C0 8.16717 0.25475 6.92283 0.76425 5.767C1.27358 4.61117 1.96833 3.60575 2.8485 2.75075C3.7285 1.89558 4.75967 1.22333 5.942 0.734C7.12433 0.244666 8.38683 0 9.7295 0C10.9727 0 12.1538 0.208666 13.273 0.625999C14.3923 1.04333 15.3753 1.62375 16.222 2.36725C17.0688 3.11092 17.7435 3.99375 18.246 5.01575C18.7487 6.03775 19 7.153 19 8.3615C19 10.0358 18.5138 11.366 17.5413 12.352C16.5689 13.3378 15.2624 13.8307 13.6218 13.8307H11.8C11.441 13.8307 11.1373 13.9598 10.889 14.218C10.6408 14.476 10.5167 14.776 10.5167 15.118C10.5167 15.5508 10.64 15.9198 10.8865 16.225C11.133 16.5302 11.2563 16.8829 11.2563 17.2833C11.2563 17.8444 11.1001 18.2708 10.7878 18.5625C10.4754 18.8542 10.0398 19 9.48075 19ZM4.63525 9.74675C4.85792 9.52408 4.96925 9.25933 4.96925 8.9525C4.96925 8.64567 4.85792 8.38092 4.63525 8.15825C4.41258 7.93575 4.14783 7.8245 3.841 7.8245C3.53417 7.8245 3.26942 7.93575 3.04675 8.15825C2.82408 8.38092 2.71275 8.64567 2.71275 8.9525C2.71275 9.25933 2.82408 9.52408 3.04675 9.74675C3.26942 9.96942 3.53417 10.0808 3.841 10.0808C4.14783 10.0808 4.41258 9.96942 4.63525 9.74675ZM7.7095 5.625C7.93217 5.40233 8.0435 5.13758 8.0435 4.83075C8.0435 4.52392 7.93217 4.25917 7.7095 4.0365C7.487 3.81383 7.22233 3.7025 6.9155 3.7025C6.60867 3.7025 6.34392 3.81383 6.12125 4.0365C5.89858 4.25917 5.78725 4.52392 5.78725 4.83075C5.78725 5.13758 5.89858 5.40233 6.12125 5.625C6.34392 5.84767 6.60867 5.959 6.9155 5.959C7.22233 5.959 7.487 5.84767 7.7095 5.625ZM12.8788 5.625C13.1014 5.40233 13.2128 5.13758 13.2128 4.83075C13.2128 4.52392 13.1014 4.25917 12.8788 4.0365C12.6561 3.81383 12.3913 3.7025 12.0845 3.7025C11.7777 3.7025 11.513 3.81383 11.2905 4.0365C11.0678 4.25917 10.9565 4.52392 10.9565 4.83075C10.9565 5.13758 11.0678 5.40233 11.2905 5.625C11.513 5.84767 11.7777 5.959 12.0845 5.959C12.3913 5.959 12.6561 5.84767 12.8788 5.625ZM16.011 9.74675C16.2335 9.52408 16.3447 9.25933 16.3447 8.9525C16.3447 8.64567 16.2335 8.38092 16.011 8.15825C15.7883 7.93575 15.5236 7.8245 15.2167 7.8245C14.9099 7.8245 14.6452 7.93575 14.4225 8.15825C14.1998 8.38092 14.0885 8.64567 14.0885 8.9525C14.0885 9.25933 14.1998 9.52408 14.4225 9.74675C14.6452 9.96942 14.9099 10.0808 15.2167 10.0808C15.5236 10.0808 15.7883 9.96942 16.011 9.74675ZM9.48075 17.7435C9.65725 17.7435 9.78792 17.7052 9.87275 17.6285C9.95758 17.5518 10 17.4368 10 17.2833C10 17.0499 9.87675 16.816 9.63025 16.5815C9.38358 16.3468 9.26025 15.9068 9.26025 15.2615C9.26025 14.5172 9.50642 13.8832 9.99875 13.3595C10.4911 12.836 11.103 12.5743 11.8345 12.5743H13.6218C14.8799 12.5743 15.8814 12.2047 16.6262 11.4655C17.3711 10.7262 17.7435 9.6915 17.7435 8.3615C17.7435 6.25033 16.938 4.53842 15.327 3.22575C13.7158 1.91292 11.85 1.2565 9.7295 1.2565C7.36233 1.2565 5.35842 2.0535 3.71775 3.6475C2.07692 5.2415 1.2565 7.19233 1.2565 9.5C1.2565 11.7798 2.05933 13.7238 3.665 15.3318C5.27083 16.9396 7.20942 17.7435 9.48075 17.7435Z" fill="#262626"/>
</svg>
