<svg viewBox="0 0 19 17.777" fill="none" xmlns="http://www.w3.org/2000/svg">
<path id="Vector" d="M1.748 10C1.16467 9.41667 0.7275 8.75483 0.4365 8.0145C0.1455 7.274 0 6.50825 0 5.71725C0 4.14175 0.503833 2.795 1.5115 1.677C2.51917 0.558999 3.76658 0 5.25375 0C5.99608 0 6.70217 0.150333 7.372 0.450999C8.042 0.751666 8.63917 1.1725 9.1635 1.7135L9.5 2.06925L9.81725 1.73275C10.3378 1.17892 10.9346 0.751666 11.6078 0.450999C12.2808 0.150333 12.9852 0 13.7212 0C15.2084 0 16.46 0.558999 17.476 1.677C18.492 2.795 19 4.13342 19 5.69225C19 6.48975 18.8519 7.25867 18.5557 7.999C18.2596 8.7395 17.825 9.40142 17.252 9.98475L9.475 17.777L1.748 10ZM5.25375 1.2565C4.12275 1.2565 3.17375 1.69183 2.40675 2.5625C1.63992 3.43317 1.2565 4.47642 1.2565 5.69225C1.2565 6.07792 1.30092 6.45583 1.38975 6.826C1.47858 7.19633 1.612 7.55775 1.79 7.91025H6.816L8.314 10.1365L10.007 4.8615H10.8045L12.843 7.91025H17.2095C17.3912 7.55292 17.527 7.18833 17.617 6.8165C17.707 6.44483 17.7509 6.07008 17.7488 5.69225C17.7354 4.47475 17.3447 3.43175 16.5765 2.56325C15.8082 1.69458 14.8574 1.26025 13.7242 1.26025C13.1567 1.26025 12.6112 1.37575 12.0875 1.60675C11.5638 1.83775 11.1082 2.16692 10.7205 2.59425L9.76625 3.609H9.211L8.261 2.59425C7.866 2.16892 7.40717 1.83958 6.8845 1.60625C6.362 1.37308 5.81842 1.2565 5.25375 1.2565ZM9.5 15.977L16.2852 9.16675H12.1768L10.686 6.9405L8.97625 12.2037H8.1905L6.14875 9.16675H2.69925L9.5 15.977Z" fill="#262626"/>
</svg>
