<svg viewBox="0 0 20.1448 17" fill="none" xmlns="http://www.w3.org/2000/svg">
<path id="Vector" d="M4.68575 6.0415L2.2685 7.389L0 3.45L5.892 0H7.91025V0.8935C7.91025 1.5055 8.11792 2.01925 8.53325 2.43475C8.94858 2.85008 9.46225 3.05775 10.0743 3.05775C10.6863 3.05775 11.1993 2.85008 11.6133 2.43475C12.0274 2.01925 12.2345 1.5055 12.2345 0.8935V0H14.246L20.1448 3.45L17.8275 7.43275L15.405 6.01975V17H4.68575V6.0415ZM5.94225 3.914V15.7435H14.1485V3.914L17.3985 5.716L18.4665 3.88075L13.9968 1.277H13.4563C13.3631 2.141 13.0016 2.86317 12.3718 3.4435C11.7418 4.02383 10.9759 4.314 10.0743 4.314C9.17258 4.314 8.40617 4.02383 7.775 3.4435C7.14367 2.86317 6.77933 2.141 6.682 1.277H6.148L1.67175 3.88075L2.73975 5.716L5.94225 3.914Z" fill="#262626"/>
</svg>
