<svg viewBox="0 0 21.5 8.47875" fill="none" xmlns="http://www.w3.org/2000/svg">
<path id="Vector" d="M9.1385 5.91525L8.3745 5.14475C8.495 4.96575 8.58375 4.76825 8.64075 4.55225C8.69775 4.33642 8.72625 4.11633 8.72625 3.892C8.72625 3.6675 8.69617 3.44742 8.636 3.23175C8.57567 3.01608 8.48525 2.82492 8.36475 2.65825L9.12875 1.889C9.36392 2.16683 9.5385 2.48 9.6525 2.8285C9.76667 3.177 9.82375 3.53325 9.82375 3.89725C9.82375 4.26142 9.76825 4.6185 9.65725 4.9685C9.54642 5.3185 9.3735 5.63408 9.1385 5.91525ZM11.018 7.78375L10.2488 7.021C10.6414 6.54117 10.9321 6.0355 11.1207 5.504C11.3094 4.97267 11.4038 4.43358 11.4038 3.88675C11.4038 3.33992 11.3094 2.80025 11.1207 2.26775C10.9321 1.73525 10.6414 1.23567 10.2488 0.769L11.018 0C11.5197 0.577667 11.8895 1.19817 12.1275 1.8615C12.3655 2.52467 12.4845 3.20108 12.4845 3.89075C12.4845 4.58042 12.3655 5.25667 12.1275 5.9195C11.8895 6.5825 11.5197 7.20392 11.018 7.78375ZM3.6265 4.5365C3.15833 4.5365 2.76058 4.37258 2.43325 4.04475C2.10592 3.71692 1.94225 3.31892 1.94225 2.85075C1.94225 2.38258 2.10617 1.9835 2.434 1.6535C2.76167 1.32333 3.15958 1.15825 3.62775 1.15825C4.09592 1.15825 4.49508 1.32358 4.82525 1.65425C5.15542 1.98475 5.3205 2.38408 5.3205 2.85225C5.3205 3.32042 5.15517 3.71817 4.8245 4.0455C4.494 4.37283 4.09467 4.5365 3.6265 4.5365ZM0 8.47875V8.2275C0 7.908 0.0888333 7.61833 0.2665 7.3585C0.444 7.09867 0.687417 6.90175 0.99675 6.76775C1.40492 6.58975 1.82783 6.45433 2.2655 6.3615C2.70333 6.26867 3.15842 6.22225 3.63075 6.22225C4.10292 6.22225 4.55717 6.26867 4.9935 6.3615C5.42983 6.45433 5.85183 6.58975 6.2595 6.76775C6.56883 6.90175 6.81233 7.09867 6.99 7.3585C7.16767 7.61833 7.2565 7.908 7.2565 8.2275V8.47875H0ZM17.87 4.5365C17.4018 4.5365 17.0041 4.37258 16.6768 4.04475C16.3496 3.71692 16.186 3.31892 16.186 2.85075C16.186 2.38258 16.3498 1.9835 16.6775 1.6535C17.0053 1.32333 17.4033 1.15825 17.8715 1.15825C18.3397 1.15825 18.7388 1.32358 19.069 1.65425C19.399 1.98475 19.564 2.38408 19.564 2.85225C19.564 3.32042 19.3987 3.71817 19.0682 4.0455C18.7376 4.37283 18.3382 4.5365 17.87 4.5365ZM14.2435 8.47875V8.2275C14.2435 7.908 14.3323 7.61833 14.51 7.3585C14.6877 7.09867 14.9312 6.90175 15.2405 6.76775C15.6485 6.58975 16.0714 6.45433 16.5093 6.3615C16.9469 6.26867 17.4019 6.22225 17.8742 6.22225C18.3466 6.22225 18.8009 6.26867 19.2373 6.3615C19.6736 6.45433 20.0956 6.58975 20.5033 6.76775C20.8126 6.90175 21.056 7.09867 21.2335 7.3585C21.4112 7.61833 21.5 7.908 21.5 8.2275V8.47875H14.2435Z" fill="#262626"/>
</svg>
