<svg viewBox="0 0 21 14.9038" fill="none" xmlns="http://www.w3.org/2000/svg">
<path id="Vector" d="M2.69225 9.677H3.64425L4.2095 8.08475H6.94425L7.525 9.677H8.47125L6.10375 3.38075H5.05L2.69225 9.677ZM4.5155 7.25575L5.552 4.3885H5.602L6.6385 7.25575H4.5155ZM4.85125 11.782C5.73325 11.782 6.59133 11.8849 7.4255 12.0908C8.25983 12.2966 9.08425 12.6138 9.89875 13.0423V2.809C9.16458 2.30167 8.36092 1.91608 7.48775 1.65225C6.61475 1.38842 5.73592 1.2565 4.85125 1.2565C4.20558 1.2565 3.58025 1.32392 2.97525 1.45875C2.37042 1.59358 1.7975 1.78208 1.2565 2.02425V12.4385C1.7505 12.2205 2.31867 12.0566 2.961 11.9468C3.60317 11.8369 4.23325 11.782 4.85125 11.782ZM11.155 13.0423C11.9722 12.6138 12.7865 12.2966 13.598 12.0908C14.4097 11.8849 15.2599 11.782 16.1488 11.782C16.7668 11.782 17.4002 11.8353 18.0492 11.9418C18.6984 12.0481 19.2632 12.1923 19.7435 12.3745V2.02375C19.2273 1.75708 18.6616 1.5625 18.0462 1.44C17.4309 1.31767 16.7994 1.2565 16.1518 1.2565C15.2596 1.2565 14.3863 1.38842 13.5318 1.65225C12.6773 1.91608 11.885 2.30167 11.155 2.809V13.0423ZM10.5238 14.9038C9.69042 14.3089 8.79125 13.851 7.82625 13.53C6.86125 13.2092 5.86958 13.0488 4.85125 13.0488C4.01108 13.0488 3.14025 13.1915 2.23875 13.477C1.33725 13.7623 0.591 14.0958 0 14.4775V1.207C0.632 0.833501 1.3805 0.539 2.2455 0.3235C3.11033 0.107833 3.97892 0 4.85125 0C5.86675 0 6.8545 0.140918 7.8145 0.422751C8.7745 0.704584 9.67867 1.1265 10.527 1.6885C11.3642 1.1265 12.2592 0.704584 13.2122 0.422751C14.1652 0.140918 15.1441 0 16.1488 0C17.0211 0 17.8881 0.1095 18.7498 0.3285C19.6114 0.5475 20.3615 0.840334 21 1.207V14.4775C20.4192 14.089 19.6755 13.7538 18.769 13.4718C17.8623 13.1898 16.9889 13.0488 16.1488 13.0488C15.1293 13.0488 14.1452 13.2109 13.1965 13.5353C12.248 13.8596 11.3571 14.3158 10.5238 14.9038ZM12.4423 5.1435V4.07175C12.9859 3.81925 13.5548 3.62983 14.149 3.5035C14.7433 3.37733 15.3603 3.31425 16 3.31425C16.4013 3.31425 16.7911 3.34275 17.1693 3.39975C17.5474 3.45675 17.9269 3.53208 18.3078 3.62575V4.636C17.9334 4.50517 17.5613 4.41025 17.1913 4.35125C16.8214 4.29225 16.4243 4.26275 16 4.26275C15.3603 4.26275 14.7408 4.33875 14.1413 4.49075C13.5419 4.64258 12.9756 4.86017 12.4423 5.1435ZM12.4423 10.6243V9.523C12.9731 9.274 13.5404 9.08717 14.1443 8.9625C14.7481 8.838 15.3667 8.77575 16 8.77575C16.4013 8.77575 16.7911 8.80425 17.1693 8.86125C17.5474 8.91825 17.9269 8.99358 18.3078 9.08725V10.0975C17.9334 9.96667 17.5613 9.87175 17.1913 9.81275C16.8214 9.75375 16.4243 9.72425 16 9.72425C15.3603 9.72425 14.7408 9.80092 14.1413 9.95425C13.5419 10.1074 12.9756 10.3308 12.4423 10.6243ZM12.4423 7.8935V6.8025C12.9859 6.55 13.5548 6.36058 14.149 6.23425C14.7433 6.10808 15.3603 6.045 16 6.045C16.4013 6.045 16.7911 6.0735 17.1693 6.1305C17.5474 6.1875 17.9269 6.26283 18.3078 6.3565V7.36675C17.9334 7.23592 17.5613 7.141 17.1913 7.082C16.8214 7.023 16.4243 6.9935 16 6.9935C15.3603 6.9935 14.7408 7.07267 14.1413 7.231C13.5419 7.38933 12.9756 7.61017 12.4423 7.8935Z" fill="#262626"/>
</svg>
