<svg viewBox="0 0 21.5 19.4423" fill="none" xmlns="http://www.w3.org/2000/svg">
<path id="Vector" d="M1.16025 19.4423C1.55125 18.2653 1.83125 17.0339 2.00025 15.7483C2.16925 14.4626 2.27383 13.108 2.314 11.6845C1.63933 11.4782 1.085 11.0648 0.651 10.4445C0.217 9.82417 0 9.09133 0 8.246V6.91275C1.87817 6.27858 3.794 5.32475 5.7475 4.05125C7.70083 2.77775 9.36833 1.42733 10.75 0C12.1317 1.42733 13.7992 2.77775 15.7525 4.05125C17.706 5.32475 19.6218 6.27858 21.5 6.91275V8.246C21.5 9.09133 21.2857 9.82417 20.8572 10.4445C20.4289 11.0648 19.8773 11.4782 19.2025 11.6845C19.2317 13.0763 19.3324 14.4186 19.5048 15.7113C19.6773 17.0038 19.9612 18.2474 20.3565 19.4423H1.16025ZM3.0115 6.98975H18.4885C17.0988 6.33842 15.7603 5.5695 14.473 4.683C13.1858 3.7965 11.9448 2.8115 10.75 1.728C9.591 2.78667 8.36233 3.76375 7.064 4.65925C5.76567 5.55475 4.41483 6.33158 3.0115 6.98975ZM13.2872 10.5538C13.8564 10.5538 14.3152 10.3223 14.6635 9.8595C15.0118 9.39667 15.186 8.85883 15.186 8.246H11.3783C11.3783 8.85883 11.5541 9.39667 11.9057 9.8595C12.2574 10.3223 12.7179 10.5538 13.2872 10.5538ZM8.223 10.5538C8.7965 10.5538 9.25633 10.3223 9.6025 9.8595C9.94867 9.39667 10.1218 8.85883 10.1218 8.246H6.3205C6.3205 8.85883 6.49525 9.39667 6.84475 9.8595C7.19442 10.3223 7.65383 10.5538 8.223 10.5538ZM3.1655 10.5538C3.73467 10.5538 4.19342 10.3223 4.54175 9.8595C4.88992 9.39667 5.064 8.85883 5.064 8.246H1.2565C1.2565 8.85883 1.43233 9.39667 1.784 9.8595C2.13567 10.3223 2.59617 10.5538 3.1655 10.5538ZM2.81925 18.1858H6.36025C6.51625 17.1918 6.64092 16.166 6.73425 15.1085C6.82775 14.051 6.90308 12.8687 6.96025 11.5615C6.73892 11.4632 6.50933 11.3101 6.2715 11.1023C6.03367 10.8943 5.85083 10.6632 5.723 10.409C5.46583 10.7978 5.155 11.1093 4.7905 11.3435C4.42583 11.5777 4.01917 11.7247 3.5705 11.7845C3.53033 12.9353 3.45467 14.0371 3.3435 15.0898C3.2325 16.1423 3.05775 17.1743 2.81925 18.1858ZM7.64225 18.1858H13.8745C13.7175 17.2106 13.5967 16.2043 13.512 15.167C13.4272 14.1295 13.3595 12.9999 13.309 11.7783C12.7508 11.7769 12.2384 11.6441 11.7718 11.3798C11.3051 11.1154 10.9521 10.7491 10.7128 10.2808C10.4734 10.7491 10.1294 11.1154 9.68075 11.3798C9.23208 11.6441 8.73892 11.7769 8.20125 11.7783C8.15508 12.8624 8.09133 13.9356 8.01 14.9978C7.9285 16.0599 7.80592 17.1226 7.64225 18.1858ZM15.1462 18.1858H18.6975C18.441 17.1426 18.2589 16.0903 18.1512 15.0288C18.0436 13.9673 17.9752 12.8858 17.9462 11.7845C17.5042 11.7247 17.1048 11.5794 16.748 11.3488C16.3912 11.1179 16.0901 10.7983 15.8447 10.3898C15.6914 10.6751 15.4954 10.9172 15.2568 11.116C15.0181 11.3147 14.7825 11.4632 14.55 11.5615C14.5893 12.6072 14.6559 13.6739 14.7497 14.7618C14.8434 15.8496 14.9756 16.9909 15.1462 18.1858ZM18.3447 10.5538C18.9184 10.5538 19.3782 10.3223 19.7242 9.8595C20.0704 9.39667 20.2435 8.85883 20.2435 8.246H16.4423C16.4423 8.85883 16.6171 9.39667 16.9667 9.8595C17.3162 10.3223 17.7756 10.5538 18.3447 10.5538Z" fill="#262626"/>
</svg>
