<svg viewBox="0 0 17 17" fill="none" xmlns="http://www.w3.org/2000/svg">
<path id="Vector" d="M0 17V11.5948H1.2565V15.7435H5.40525V17H0ZM11.5947 17V15.7435H15.7435V11.5948H17V17H11.5947ZM0 5.40525V0H5.40525V1.2565H1.2565V5.40525H0ZM15.7435 5.40525V1.2565H11.5947V0H17V5.40525H15.7435ZM6.14775 10.8523C5.52025 10.2248 5.2065 9.44067 5.2065 8.5C5.2065 7.55933 5.52025 6.77525 6.14775 6.14775C6.77525 5.52025 7.55933 5.2065 8.5 5.2065C9.44067 5.2065 10.2248 5.52025 10.8523 6.14775C11.4798 6.77525 11.7935 7.55933 11.7935 8.5C11.7935 9.44067 11.4798 10.2248 10.8523 10.8523C10.2248 11.4798 9.44067 11.7935 8.5 11.7935C7.55933 11.7935 6.77525 11.4798 6.14775 10.8523ZM9.9445 9.94525C10.3397 9.55075 10.5372 9.06925 10.5372 8.50075C10.5372 7.93225 10.3399 7.4505 9.94525 7.0555C9.55075 6.66033 9.06925 6.46275 8.50075 6.46275C7.93225 6.46275 7.4505 6.66008 7.0555 7.05475C6.66033 7.44925 6.46275 7.93075 6.46275 8.49925C6.46275 9.06775 6.66008 9.5495 7.05475 9.9445C7.44925 10.3397 7.93075 10.5372 8.49925 10.5372C9.06775 10.5372 9.5495 10.3399 9.9445 9.94525Z" fill="#262626"/>
</svg>
