<svg viewBox="0 0 20.5 18.9897" fill="none" xmlns="http://www.w3.org/2000/svg">
<path id="Vector" d="M17.159 4.70775C17.381 4.70775 17.5713 4.62608 17.73 4.46275C17.8887 4.29958 17.968 4.11375 17.968 3.90525C17.968 3.67892 17.8887 3.4875 17.73 3.331C17.5713 3.1745 17.381 3.09625 17.159 3.09625C16.937 3.09625 16.7467 3.17492 16.588 3.33225C16.4293 3.48975 16.35 3.68075 16.35 3.90525C16.35 4.11375 16.4293 4.29958 16.588 4.46275C16.7467 4.62608 16.937 4.70775 17.159 4.70775ZM13.0098 4.70775C13.2321 4.70775 13.4226 4.62608 13.5813 4.46275C13.7399 4.29958 13.8193 4.11375 13.8193 3.90525C13.8193 3.67892 13.7399 3.4875 13.5813 3.331C13.4226 3.1745 13.2321 3.09625 13.0098 3.09625C12.7873 3.09625 12.5979 3.17492 12.4417 3.33225C12.2857 3.48975 12.2078 3.68075 12.2078 3.90525C12.2078 4.11375 12.2857 4.29958 12.4417 4.46275C12.5979 4.62608 12.7873 4.70775 13.0098 4.70775ZM12.605 8.2295H17.5435C17.5115 7.73467 17.2483 7.33875 16.754 7.04175C16.2597 6.74475 15.6998 6.59625 15.0745 6.59625C14.4363 6.59625 13.8701 6.74475 13.3758 7.04175C12.8813 7.33875 12.6243 7.73467 12.605 8.2295ZM1.583 17.3855C0.527667 16.3162 0 15.0403 0 13.5578V7.21675H10.8512V13.5578C10.8512 15.0403 10.3254 16.3162 9.27375 17.3855C8.22208 18.455 6.94125 18.9897 5.43125 18.9897C3.92108 18.9897 2.63833 18.455 1.583 17.3855ZM8.3725 16.4923C9.1875 15.6649 9.595 14.6878 9.595 13.5608V8.473H1.2565V13.5608C1.2565 14.6878 1.665 15.6649 2.482 16.4923C3.29917 17.3196 4.2815 17.7333 5.429 17.7333C6.57633 17.7333 7.5575 17.3196 8.3725 16.4923ZM15.0742 11.7668C14.5659 11.7668 14.0618 11.7005 13.562 11.568C13.0622 11.4355 12.6172 11.2488 12.227 11.0078L12.2462 9.56275C12.6406 9.82825 13.0758 10.0525 13.5518 10.2355C14.0276 10.4187 14.5351 10.5103 15.0742 10.5103C16.2209 10.5103 17.2024 10.1155 18.0188 9.326C18.8353 8.53667 19.2435 7.57883 19.2435 6.4525V1.2565H10.868V5.85525H9.6115V0H20.5V6.4525C20.5 7.92383 19.9725 9.17733 18.9175 10.213C17.8625 11.2488 16.5814 11.7668 15.0742 11.7668ZM3.3685 11.8295C3.591 11.8295 3.78025 11.7514 3.93625 11.5953C4.09242 11.4389 4.1705 11.2495 4.1705 11.027C4.1705 10.8025 4.09242 10.6116 3.93625 10.4543C3.78025 10.2968 3.591 10.218 3.3685 10.218C3.14617 10.218 2.95567 10.2965 2.797 10.4535C2.63833 10.6105 2.559 10.8008 2.559 11.0245C2.559 11.2482 2.63833 11.4383 2.797 11.5948C2.95567 11.7513 3.14617 11.8295 3.3685 11.8295ZM8.098 11.5953C8.25233 11.4389 8.3295 11.2495 8.3295 11.027C8.3295 10.8025 8.25142 10.6116 8.09525 10.4543C7.93892 10.2968 7.7495 10.218 7.527 10.218C7.3025 10.218 7.11158 10.2965 6.95425 10.4535C6.79675 10.6105 6.718 10.8008 6.718 11.0245C6.718 11.2482 6.79533 11.4383 6.95 11.5948C7.10483 11.7513 7.29633 11.8295 7.5245 11.8295C7.75267 11.8295 7.94383 11.7514 8.098 11.5953ZM7.1615 15.0173C7.656 14.7203 7.91283 14.3243 7.932 13.8295H2.9935C3.01283 14.3243 3.26967 14.7203 3.764 15.0173C4.25817 15.3143 4.82433 15.4628 5.4625 15.4628C6.10083 15.4628 6.66717 15.3143 7.1615 15.0173Z" fill="#262626"/>
</svg>
