<svg viewBox="0 0 20.5575 20.8078" fill="none" xmlns="http://www.w3.org/2000/svg">
<path id="Vector" d="M12.6467 12.927C12.2284 12.0393 11.4872 11.3978 10.423 11.0023C9.35883 10.6068 8.25367 10.409 7.1075 10.409C5.96433 10.409 4.85592 10.6068 3.78225 11.0023C2.70858 11.3978 1.96767 12.0393 1.5595 12.927H12.6467ZM0 14.1835C0 12.5463 0.73225 11.2986 2.19675 10.4402C3.66125 9.58192 5.29733 9.15275 7.105 9.15275C8.91783 9.15275 10.5552 9.58192 12.0172 10.4402C13.4792 11.2986 14.2103 12.5463 14.2103 14.1835H0ZM0 17.445V16.1885H14.2103V17.445H0ZM15.9665 20.8078V19.5512H17.732L19.1485 5.5H9.67175L9.5165 4.24375H14.382V0H15.6383V4.24375H20.5575L18.853 20.8078H15.9665ZM0 20.8078V19.5512H14.2103V20.8078H0Z" fill="#262626"/>
</svg>
