<svg viewBox="0 0 19 18" fill="none" xmlns="http://www.w3.org/2000/svg">
<path id="Vector" d="M0 18V16.7435H8.87175V5.17625C8.41925 5.05825 8.01725 4.82833 7.66575 4.4865C7.31425 4.14467 7.07633 3.73467 6.952 3.2565H3.2565L6.2565 10.6328C6.23033 11.3399 5.91533 11.9423 5.3115 12.4398C4.70767 12.9373 3.97992 13.186 3.12825 13.186C2.27658 13.186 1.54883 12.9373 0.945 12.4398C0.341167 11.9423 0.0261667 11.3399 0 10.6328L3.0065 3.2565H1V2H6.952C7.107 1.4295 7.41733 0.953584 7.883 0.57225C8.34867 0.19075 8.88767 0 9.5 0C10.1123 0 10.6513 0.19075 11.117 0.57225C11.5825 0.953584 11.8928 1.4295 12.048 2H18V3.2565H16L19 10.6328C18.9738 11.3399 18.6588 11.9423 18.055 12.4398C17.4512 12.9373 16.7234 13.186 15.8718 13.186C15.0201 13.186 14.2923 12.9373 13.6885 12.4398C13.0847 11.9423 12.7697 11.3399 12.7435 10.6328L15.75 3.2565H12.048C11.9237 3.73467 11.6858 4.14467 11.3343 4.4865C10.9828 4.82833 10.5808 5.05825 10.1283 5.17625V16.7435H19V18H0ZM13.9295 10.5578H17.814L15.8718 5.74925L13.9295 10.5578ZM1.186 10.5578H5.0705L3.12825 5.74925L1.186 10.5578ZM9.5 4C9.88333 4 10.2078 3.86442 10.4735 3.59325C10.739 3.32208 10.8718 3.00042 10.8718 2.62825C10.8718 2.24492 10.739 1.92042 10.4735 1.65475C10.2078 1.38925 9.88333 1.2565 9.5 1.2565C9.12783 1.2565 8.80617 1.38925 8.535 1.65475C8.26383 1.92042 8.12825 2.24492 8.12825 2.62825C8.12825 3.00042 8.26383 3.32208 8.535 3.59325C8.80617 3.86442 9.12783 4 9.5 4Z" fill="#262626"/>
</svg>
