<svg viewBox="0 0 23 10.4808" fill="none" xmlns="http://www.w3.org/2000/svg">
<path id="Vector" d="M0 10.4808V9.38325C0 8.75425 0.33675 8.23717 1.01025 7.832C1.68375 7.42683 2.56167 7.22425 3.644 7.22425C3.81933 7.22425 3.9985 7.23008 4.1815 7.24175C4.36433 7.25325 4.5485 7.27375 4.734 7.30325C4.593 7.58692 4.48667 7.87508 4.415 8.16775C4.3435 8.46042 4.30775 8.76025 4.30775 9.06725V10.4808H0ZM6 10.4808V9.10575C6 8.63758 6.13142 8.20967 6.39425 7.822C6.65708 7.43417 7.03592 7.09608 7.53075 6.80775C8.02558 6.51925 8.61025 6.30292 9.28475 6.15875C9.95908 6.01442 10.6963 5.94225 11.4963 5.94225C12.3116 5.94225 13.0564 6.01442 13.7307 6.15875C14.4051 6.30292 14.9897 6.51925 15.4845 6.80775C15.9795 7.09608 16.3558 7.43417 16.6135 7.822C16.8712 8.20967 17 8.63758 17 9.10575V10.4808H6ZM18.6923 10.4808V9.07025C18.6923 8.74508 18.6601 8.43667 18.5958 8.145C18.5314 7.8535 18.4294 7.57333 18.2898 7.3045C18.4859 7.27417 18.6727 7.25325 18.85 7.24175C19.0273 7.23008 19.2013 7.22425 19.3718 7.22425C20.4556 7.22425 21.3313 7.4235 21.9988 7.822C22.6663 8.2205 23 8.74092 23 9.38325V10.4808H18.6923ZM7.27575 9.22425H15.7295V9.04425C15.7082 8.50275 15.3039 8.05975 14.5167 7.71525C13.7296 7.37092 12.724 7.19875 11.5 7.19875C10.2803 7.19875 9.27583 7.37092 8.4865 7.71525C7.69717 8.05975 7.29358 8.50617 7.27575 9.0545V9.22425ZM3.628 6.375C3.19317 6.375 2.82117 6.21942 2.512 5.90825C2.20267 5.59725 2.048 5.22292 2.048 4.78525C2.048 4.34675 2.20358 3.97375 2.51475 3.66625C2.82575 3.35892 3.20008 3.20525 3.63775 3.20525C4.07625 3.20525 4.45083 3.35892 4.7615 3.66625C5.07217 3.97375 5.2275 4.35008 5.2275 4.79525C5.2275 5.22358 5.07392 5.594 4.76675 5.9065C4.45958 6.21883 4.08 6.375 3.628 6.375ZM19.3645 6.375C18.9343 6.375 18.5631 6.21842 18.2508 5.90525C17.9383 5.59225 17.782 5.21983 17.782 4.788C17.782 4.34767 17.9386 3.97375 18.2518 3.66625C18.5648 3.35892 18.9388 3.20525 19.3738 3.20525C19.8173 3.20525 20.1928 3.35892 20.5003 3.66625C20.8078 3.97375 20.9615 4.34917 20.9615 4.7925C20.9615 5.22667 20.8082 5.599 20.5015 5.9095C20.1948 6.21983 19.8158 6.375 19.3645 6.375ZM11.5035 5.19225C10.7832 5.19225 10.1698 4.93983 9.6635 4.435C9.15717 3.93033 8.904 3.31742 8.904 2.59625C8.904 1.86058 9.15633 1.244 9.661 0.7465C10.1658 0.248833 10.7788 0 11.5 0C12.2355 0 12.8521 0.2485 13.3497 0.7455C13.8472 1.24233 14.096 1.85808 14.096 2.59275C14.096 3.31292 13.8476 3.92625 13.3508 4.43275C12.8538 4.93908 12.238 5.19225 11.5035 5.19225ZM11.5107 3.936C11.8869 3.936 12.2025 3.806 12.4575 3.546C12.7123 3.28617 12.8398 2.966 12.8398 2.5855C12.8398 2.20933 12.7118 1.89375 12.456 1.63875C12.2003 1.38392 11.8836 1.2565 11.5058 1.2565C11.1318 1.2565 10.814 1.38433 10.5525 1.64C10.291 1.89583 10.1603 2.21258 10.1603 2.59025C10.1603 2.96425 10.2902 3.282 10.55 3.5435C10.81 3.80517 11.1302 3.936 11.5107 3.936Z" fill="#262626"/>
</svg>
