<svg viewBox="0 0 18.1308 19" fill="none" xmlns="http://www.w3.org/2000/svg">
<path id="Vector" d="M7.83275 12.1192H9.14675L9.22125 11.107C9.45025 11.0638 9.66683 10.9841 9.871 10.8677C10.0753 10.7516 10.2506 10.61 10.3968 10.443L11.3263 10.827L11.9628 9.7455L11.2193 9.16925C11.3116 8.91875 11.3578 8.66258 11.3578 8.40075C11.3578 8.13908 11.3116 7.88367 11.2193 7.6345L11.9628 7.05825L11.3263 5.977L10.3968 6.361C10.2464 6.1985 10.0685 6.06075 9.863 5.94775C9.65733 5.83475 9.44342 5.75325 9.22125 5.70325L9.14675 4.68475H7.83275L7.75825 5.70325C7.53175 5.75325 7.31575 5.83475 7.11025 5.94775C6.90458 6.06075 6.72658 6.1985 6.57625 6.361L5.64675 5.977L5.01675 7.05825L5.76025 7.6345C5.66375 7.88517 5.6155 8.14133 5.6155 8.403C5.6155 8.66467 5.66375 8.92008 5.76025 9.16925L5.01675 9.7455L5.64675 10.827L6.57625 10.443C6.72258 10.61 6.89783 10.7516 7.102 10.8677C7.30617 10.9841 7.52492 11.0638 7.75825 11.107L7.83275 12.1192ZM7.2095 9.683C6.86 9.332 6.68525 8.90533 6.68525 8.403C6.68525 7.9005 6.85942 7.4745 7.20775 7.125C7.55592 6.7755 7.98125 6.60075 8.48375 6.60075C8.98608 6.60075 9.41342 6.77483 9.76575 7.123C10.1181 7.47133 10.2943 7.89667 10.2943 8.399C10.2943 8.90133 10.1188 9.32867 9.76775 9.681C9.41675 10.0335 8.99 10.2098 8.4875 10.2098C7.98517 10.2098 7.55917 10.0342 7.2095 9.683ZM3 19V14.9693C2.05 14.1026 1.3125 13.1093 0.7875 11.9895C0.2625 10.8695 0 9.70317 0 8.4905C0 6.1315 0.826917 4.12667 2.48075 2.476C4.13458 0.825333 6.141 0 8.5 0C10.4423 0 12.1792 0.580499 13.7105 1.7415C15.242 2.90233 16.2366 4.40842 16.6943 6.25975L18.1308 12H15V17H11V19H9.7435V15.7435H13.7435V10.7435H16.518L15.4833 6.561C15.0931 4.98833 14.245 3.71108 12.939 2.72925C11.6332 1.74742 10.1535 1.2565 8.5 1.2565C6.4915 1.2565 4.78208 1.95492 3.37175 3.35175C1.96158 4.74858 1.2565 6.44867 1.2565 8.452C1.2565 9.4925 1.46867 10.4768 1.893 11.405C2.31733 12.3332 2.91667 13.158 3.691 13.8795L4.2565 14.4115V19H3Z" fill="#262626"/>
</svg>
