<svg viewBox="0 0 13 19" fill="none" xmlns="http://www.w3.org/2000/svg">
<path id="Vector" d="M2.35775 18.302C1.28592 17.8365 0.75 17.2412 0.75 16.516C0.75 16.1472 0.918084 15.794 1.25425 15.4565C1.59025 15.1188 2.05058 14.8378 2.63525 14.6135L3.59925 15.4718C3.29725 15.5688 2.99283 15.7158 2.686 15.9128C2.379 16.1098 2.15033 16.3077 2 16.5065C2.20133 16.8368 2.73667 17.1256 3.606 17.3728C4.4755 17.6199 5.44017 17.7435 6.5 17.7435C7.5535 17.7435 8.51908 17.6199 9.39675 17.3728C10.2746 17.1256 10.8142 16.8368 11.0155 16.5065C10.8743 16.2975 10.6336 16.0962 10.2932 15.9025C9.95292 15.709 9.62892 15.5658 9.32125 15.473L10.2902 14.6033C10.9147 14.8311 11.3975 15.1127 11.7385 15.448C12.0795 15.7835 12.25 16.1395 12.25 16.516C12.25 17.2412 11.7141 17.8365 10.6423 18.302C9.57042 18.7673 8.18967 19 6.5 19C4.81033 19 3.42958 18.7673 2.35775 18.302ZM6.525 14.4262C8.26683 13.1079 9.57208 11.7942 10.4408 10.485C11.3093 9.17583 11.7435 7.92317 11.7435 6.727C11.7435 4.92017 11.1787 3.55667 10.049 2.6365C8.91933 1.7165 7.73633 1.2565 6.5 1.2565C5.277 1.2565 4.09733 1.7165 2.961 2.6365C1.82467 3.55667 1.2565 4.92017 1.2565 6.727C1.2565 7.9125 1.69117 9.14067 2.5605 10.4115C3.43 11.6825 4.7515 13.0207 6.525 14.4262ZM6.5 16C4.32783 14.3692 2.70142 12.7852 1.62075 11.248C0.54025 9.71083 0 8.20383 0 6.727C0 5.61417 0.197584 4.63917 0.59275 3.802C0.98775 2.96483 1.49683 2.26383 2.12 1.699C2.743 1.13433 3.439 0.709999 4.208 0.425999C4.977 0.141999 5.741 0 6.5 0C7.259 0 8.02467 0.141999 8.797 0.425999C9.5695 0.709999 10.2667 1.13433 10.8885 1.699C11.5102 2.26383 12.0175 2.96483 12.4105 3.802C12.8035 4.63917 13 5.61417 13 6.727C13 8.20383 12.4625 9.71083 11.3875 11.248C10.3125 12.7852 8.68333 14.3692 6.5 16ZM6.5 8.39425C6.99867 8.39425 7.42458 8.21925 7.77775 7.86925C8.13108 7.51925 8.30775 7.09167 8.30775 6.5865C8.30775 6.08783 8.13108 5.66192 7.77775 5.30875C7.42458 4.95542 6.99867 4.77875 6.5 4.77875C6.00767 4.77875 5.58333 4.95542 5.227 5.30875C4.8705 5.66192 4.69225 6.08783 4.69225 6.5865C4.69225 7.09167 4.8705 7.51925 5.227 7.86925C5.58333 8.21925 6.00767 8.39425 6.5 8.39425Z" fill="#262626"/>
</svg>
