<svg viewBox="0 0 23.5 19.452" fill="none" xmlns="http://www.w3.org/2000/svg">
<path id="Vector" d="M1 19.452V7.06425C0.7 6.90142 0.458333 6.69192 0.275 6.43575C0.0916667 6.17975 0 5.88492 0 5.55125C0 5.24042 0.150667 4.86658 0.452 4.42975C0.753167 3.99292 1.14525 3.54458 1.62825 3.08475C2.11108 3.54458 2.50317 3.99292 2.8045 4.42975C3.10583 4.86658 3.2565 5.24042 3.2565 5.55125C3.2565 5.88492 3.16483 6.17925 2.9815 6.43425C2.79817 6.68925 2.5565 6.89983 2.2565 7.066V11.952H5.12175V7.9085H6.9885C6.70383 7.5675 6.48825 7.20817 6.34175 6.8305C6.19508 6.453 6.12175 6.06258 6.12175 5.65925C6.12175 5.05675 6.26392 4.4965 6.54825 3.9785C6.83258 3.46067 7.22267 3.03983 7.7185 2.716L11.75 0L15.7815 2.716C16.2773 3.04033 16.6674 3.46183 16.9518 3.9805C17.2361 4.49917 17.3783 5.05883 17.3783 5.6595C17.3783 6.06267 17.3049 6.453 17.1583 6.8305C17.0118 7.20817 16.7962 7.5675 16.5115 7.9085H18.3783V11.952H21.2435V7.066C20.9435 6.89983 20.7018 6.68925 20.5185 6.43425C20.3352 6.17925 20.2435 5.88492 20.2435 5.55125C20.2435 5.24042 20.3942 4.86658 20.6955 4.42975C20.9968 3.99292 21.3889 3.54458 21.8718 3.08475C22.3548 3.54458 22.7468 3.99292 23.048 4.42975C23.3493 4.86658 23.5 5.24042 23.5 5.55125C23.5 5.88492 23.4083 6.17925 23.225 6.43425C23.0417 6.68925 22.8 6.90208 22.5 7.07275V19.452H13.1218V14.3303H10.3783V19.452H1ZM9.65 7.925H13.85C14.4857 7.925 15.0233 7.70609 15.4628 7.26825C15.9021 6.83042 16.1218 6.295 16.1218 5.662C16.1218 5.2665 16.0309 4.90183 15.8492 4.568C15.6677 4.23417 15.4222 3.96275 15.1125 3.75375L11.75 1.513L8.3875 3.75375C8.07783 3.96275 7.83217 4.23417 7.6505 4.568C7.469 4.90183 7.37825 5.2665 7.37825 5.662C7.37825 6.295 7.59792 6.83042 8.03725 7.26825C8.47675 7.70609 9.01433 7.925 9.65 7.925ZM2.2565 18.1955H9.12175V13.0738H14.3783V18.1955H21.2435V13.2085H17.1218V9.4315C17.1218 9.36517 17.0978 9.30692 17.0498 9.25675C17.0016 9.20658 16.9423 9.1815 16.8718 9.1815H6.62825C6.55775 9.1815 6.49842 9.20658 6.45025 9.25675C6.40225 9.30692 6.37825 9.36517 6.37825 9.4315V13.2085H2.2565V18.1955Z" fill="#262626"/>
</svg>
