<svg viewBox="0 0 13.1155 18.5193" fill="none" xmlns="http://www.w3.org/2000/svg">
<path id="Vector" d="M0 18.5193V17.2628H5.095V14.4718H4.6655C3.36467 14.4718 2.26192 14.0194 1.35725 13.1148C0.452417 12.2101 0 11.1073 0 9.8065C0 8.836 0.277916 7.953 0.83375 7.1575C1.38958 6.362 2.12533 5.79458 3.041 5.45525C3.0915 4.78125 3.38408 4.246 3.91875 3.8495C4.45325 3.45283 5.04658 3.32142 5.69875 3.45525L5.10125 1.80775L6.0885 1.452L5.7385 0.518001L7.15125 0L7.491 0.939751L8.431 0.609001L11.082 7.6795L10.1065 8.03975L10.4565 8.9795L9.0705 9.48725L8.7245 8.5475L7.71675 8.9435L7.08725 7.1705C6.85858 7.45433 6.58158 7.66908 6.25625 7.81475C5.93075 7.96042 5.58067 8.02642 5.206 8.01275C4.78583 8.00342 4.40017 7.87758 4.049 7.63525C3.698 7.39292 3.42525 7.08283 3.23075 6.705C2.62775 6.985 2.148 7.40325 1.7915 7.95975C1.43483 8.51625 1.2565 9.13183 1.2565 9.8065C1.2565 10.7567 1.58708 11.5623 2.24825 12.2235C2.90958 12.8848 3.71542 13.2155 4.66575 13.2155H12.7438V14.4718H6.96675V17.2628H13.1155V18.5193H0ZM8.4065 7.5475L9.70525 7.0565L7.786 1.92825L6.45775 2.3935L8.4065 7.5475ZM6.20325 6.59075C6.44208 6.35642 6.5615 6.06392 6.5615 5.71325C6.5615 5.36242 6.44333 5.06717 6.207 4.8275C5.9705 4.58783 5.67758 4.468 5.32825 4.468C4.97875 4.468 4.6845 4.58667 4.4455 4.824C4.20667 5.06117 4.08725 5.35517 4.08725 5.706C4.08725 6.05667 4.20542 6.35042 4.44175 6.58725C4.67825 6.82392 4.97125 6.94225 5.32075 6.94225C5.67025 6.94225 5.96442 6.82508 6.20325 6.59075Z" fill="#262626"/>
</svg>
