<svg viewBox="0 0 15 19" fill="none" xmlns="http://www.w3.org/2000/svg">
<path id="Vector" d="M0 19V4H3.87175V3.62825C3.87175 2.61708 4.22367 1.75958 4.9275 1.05575C5.63133 0.351916 6.48883 0 7.5 0C8.51117 0 9.36867 0.351916 10.0725 1.05575C10.7763 1.75958 11.1283 2.61708 11.1283 3.62825V4H15V19H0ZM1.2565 17.7435H13.7435V5.2565H11.1283V8.2565H9.87175V5.2565H5.12825V8.2565H3.87175V5.2565H1.2565V17.7435ZM5.12825 4H9.87175V3.62825C9.87175 2.96292 9.64283 2.40125 9.185 1.94325C8.727 1.48542 8.16533 1.2565 7.5 1.2565C6.83467 1.2565 6.273 1.48542 5.815 1.94325C5.35717 2.40125 5.12825 2.96292 5.12825 3.62825V4Z" fill="#262626"/>
</svg>
