<svg viewBox="0 0 17 17" fill="none" xmlns="http://www.w3.org/2000/svg">
<path id="Vector" d="M6.00775 15.618L1.37175 10.982C1.25342 11.6598 1.20633 12.4447 1.2305 13.3367C1.25467 14.2289 1.33 14.9389 1.4565 15.4667C1.9235 15.6072 2.63308 15.6978 3.58525 15.7383C4.53742 15.7786 5.34492 15.7385 6.00775 15.618ZM7.541 15.3783C8.5555 15.1941 9.5205 14.8741 10.436 14.4182C11.3513 13.9626 12.1303 13.4133 12.773 12.7705C13.393 12.15 13.9287 11.3947 14.38 10.5045C14.8313 9.61433 15.1641 8.63417 15.3783 7.564L9.436 1.62175C8.43633 1.82308 7.48192 2.15308 6.57275 2.61175C5.66358 3.07058 4.90042 3.6075 4.28325 4.2225C3.66625 4.83733 3.13283 5.60025 2.683 6.51125C2.23317 7.42208 1.87942 8.40467 1.62175 9.459L7.541 15.3783ZM6.0615 11.823L5.177 10.9385L10.9385 5.177L11.823 6.0615L6.0615 11.823ZM15.6283 6.041C15.7501 5.332 15.8 4.53133 15.778 3.639C15.7558 2.74683 15.6777 2.04492 15.5435 1.53325C15.0722 1.39358 14.3604 1.3025 13.4083 1.26C12.4561 1.2175 11.6508 1.25817 10.9923 1.382L15.6283 6.041ZM4.16725 17C3.31258 17 2.53117 16.9437 1.823 16.831C1.11467 16.7183 0.68325 16.5883 0.52875 16.4408C0.38225 16.2806 0.2575 15.8578 0.1545 15.1725C0.0514998 14.487 0 13.7344 0 12.9147C0 10.9396 0.288833 9.10967 0.8665 7.425C1.444 5.74033 2.26033 4.3705 3.3155 3.3155C4.3705 2.26033 5.74375 1.444 7.43525 0.866499C9.12658 0.288833 10.9642 0 12.948 0C13.7888 0 14.5388 0.0534996 15.198 0.1605C15.857 0.267666 16.2653 0.39525 16.423 0.54325C16.5935 0.707583 16.7323 1.12767 16.8395 1.8035C16.9465 2.47933 17 3.23475 17 4.06975C17 6.06392 16.7128 7.90592 16.1385 9.59575C15.5642 11.2857 14.7526 12.6551 13.7038 13.7038C12.6543 14.7534 11.2872 15.5652 9.60275 16.139C7.91842 16.713 6.10658 17 4.16725 17Z" fill="#262626"/>
</svg>
