<svg viewBox="0 0 17 19.1152" fill="none" xmlns="http://www.w3.org/2000/svg">
<path id="Vector" d="M7.6155 11.6922V9.923H9.3845V11.6922H7.6155ZM3.6155 11.6922V9.923H5.3845V11.6922H3.6155ZM11.6155 11.6922V9.923H13.3845V11.6922H11.6155ZM7.6155 15.6152V13.846H9.3845V15.6152H7.6155ZM3.6155 15.6152V13.846H5.3845V15.6152H3.6155ZM11.6155 15.6152V13.846H13.3845V15.6152H11.6155ZM0 19.1152V1.87175H3.2565V0H4.609V1.87175H12.4295V0H13.75V1.87175H17V19.1152H0ZM1.2565 17.8587H15.7435V7.80125H1.2565V17.8587ZM1.2565 6.54475H15.7435V3.128H1.2565V6.54475Z" fill="#262626"/>
</svg>
