<svg viewBox="0 0 22.7882 21.5193" fill="none" xmlns="http://www.w3.org/2000/svg">
<path id="Vector" d="M18.16 14.895C16.9857 14.8863 15.9796 14.5168 15.1417 13.7863C14.3039 13.0558 13.7844 12.0975 13.5832 10.9115H9.95375L9.21075 9.65525H13.5832C13.6357 9.16242 13.7903 8.66033 14.0468 8.149C14.3031 7.63767 14.643 7.21325 15.0665 6.87575H7.58375L6.82425 5.61925H15.7242L14.1685 1.2565H10.4807V0H15.0632L17.0498 5.61925H18.0382C19.4019 5.61925 20.5345 6.05567 21.436 6.9285C22.3375 7.80133 22.7882 8.91408 22.7882 10.2668C22.7882 11.5424 22.3347 12.6327 21.4277 13.5375C20.5207 14.4425 19.4315 14.895 18.16 14.895ZM18.1613 13.6385C19.0823 13.6385 19.8743 13.3068 20.5373 12.6433C21.2004 11.9796 21.532 11.1874 21.532 10.2668C21.532 9.30475 21.2105 8.49908 20.5675 7.84975C19.9245 7.20042 19.122 6.87575 18.16 6.87575C18.0728 6.87575 17.963 6.88383 17.8305 6.9C17.698 6.91617 17.5989 6.93283 17.5332 6.95L18.5537 9.70375L17.378 10.1308L16.3718 7.3705C15.8623 7.7055 15.471 8.12858 15.198 8.63975C14.9248 9.15092 14.7882 9.69325 14.7882 10.2668C14.7882 11.2054 15.1168 12.002 15.7738 12.6565C16.4308 13.3112 17.2266 13.6385 18.1613 13.6385ZM6.751 21.5193C6.02583 21.5193 5.40808 21.2642 4.89775 20.7542C4.38725 20.2444 4.132 19.6267 4.132 18.9012C4.132 18.8252 4.13517 18.7573 4.1415 18.6975C4.148 18.6377 4.15767 18.5718 4.1705 18.5H0V17.2435H4.7245C4.95 16.9743 5.23692 16.7481 5.58525 16.5647C5.93342 16.3814 6.32225 16.2897 6.75175 16.2897C7.13508 16.2897 7.49917 16.3683 7.844 16.5253C8.189 16.6824 8.4995 16.9218 8.7755 17.2435H11.8718V14.5065H0V13.25H2.12175V10H0V8.74375H6.6325L9.2915 13.25H13.128V18.5H9.32925C9.34208 18.5718 9.35175 18.6377 9.35825 18.6975C9.36458 18.7573 9.36775 18.8252 9.36775 18.9012C9.36775 19.6267 9.11292 20.2444 8.60325 20.7542C8.09358 21.2642 7.47617 21.5193 6.751 21.5193ZM3.378 13.25H7.834L5.928 10H3.378V13.25ZM6.75 20.2628C7.12217 20.2628 7.44208 20.13 7.70975 19.8645C7.97758 19.5988 8.1115 19.2777 8.1115 18.9012C8.1115 18.5291 7.97758 18.2102 7.70975 17.9445C7.44208 17.679 7.12217 17.5462 6.75 17.5462C6.37767 17.5462 6.05767 17.679 5.79 17.9445C5.52217 18.2102 5.38825 18.5291 5.38825 18.9012C5.38825 19.2777 5.52217 19.5988 5.79 19.8645C6.05767 20.13 6.37767 20.2628 6.75 20.2628Z" fill="#262626"/>
</svg>
