<svg preserveAspectRatio="none" width="100%" height="100%" overflow="visible" style="display: block;" viewBox="0 0 130 28" fill="none" xmlns="http://www.w3.org/2000/svg">
<g id="Vector">
<path fill-rule="evenodd" clip-rule="evenodd" d="M41.4211 5.79261C40.4104 6.05984 39.5708 6.68997 38.8426 7.40601C38.8426 7.36633 38.8435 7.30153 38.8446 7.21964C38.8512 6.75553 38.8656 5.7425 38.7527 5.64248C37.8512 5.79536 32.4497 6.90215 32.0234 7.26475C32.0411 7.48886 32.2632 7.66868 32.528 7.88303C32.9344 8.21203 33.4413 8.62235 33.4636 9.39897C33.4999 10.665 33.4969 11.9422 33.4939 13.2137C33.4931 13.5788 33.4922 13.9434 33.4923 14.3072L33.4971 23.8767C33.4938 25.1499 33.3721 25.5957 32.6726 26.7009C32.665 26.7128 32.6504 26.7353 32.6304 26.7659C32.4737 27.0064 31.9902 27.7483 32.0586 27.805C32.3492 28.0461 38.9822 28.0317 39.8101 27.9326C39.9808 27.9122 40.1289 27.8769 40.2793 27.791C40.2865 27.7751 40.2939 27.7601 40.3009 27.7457C40.3414 27.6632 40.3718 27.6012 40.3099 27.5086C40.177 27.3098 40.031 27.1145 39.8842 26.918C39.373 26.234 38.8511 25.5357 38.8312 24.627C38.8123 23.3157 38.814 22.0042 38.8366 20.6931C40.5347 21.6552 42.4392 22.008 44.4176 21.5312C50.507 20.0635 50.6222 9.09041 45.7345 6.27621C44.5585 5.59912 42.7282 5.40995 41.4211 5.79261ZM40.4578 7.20862C44.8508 6.8875 44.6168 18.5039 41.8302 20.5167C40.6461 21.0915 39.8269 20.5631 38.8369 19.8958C38.7852 18.3056 38.7995 16.6992 38.8139 15.0939C38.8251 13.8337 38.8364 12.5739 38.8156 11.3234C38.7994 10.3416 38.8037 9.301 38.8634 8.32248C39.319 7.6231 39.6559 7.42145 40.4578 7.20862Z" fill="#F26641"/>
<path fill-rule="evenodd" clip-rule="evenodd" d="M103.497 13.2326C103.354 8.74901 99.5463 5.22677 94.9884 5.36197C90.4225 5.49732 86.8349 9.25122 86.9779 13.7427C87.1217 18.2341 90.9417 21.7592 95.5069 21.6126C100.064 21.4663 103.64 17.7161 103.497 13.2326ZM94.8879 5.97853C95.9271 5.7999 96.5299 6.61645 96.8798 7.46056C97.993 10.1499 98.4448 19.4552 95.6257 21.0429C92.7964 21.357 92.7495 14.9065 92.7839 13.0923L92.7842 13.0784C92.8224 11.0474 92.8963 7.1201 94.8879 5.97853Z" fill="#F26641"/>
<path fill-rule="evenodd" clip-rule="evenodd" d="M129.998 13.2941C129.889 8.80117 126.095 5.24762 121.528 5.36125C116.97 5.4746 113.367 9.19761 113.476 13.6813C113.584 18.165 117.364 21.715 121.921 21.6148C126.488 21.5144 130.106 17.7871 129.998 13.2941ZM121.369 5.98005C123.223 5.69645 123.78 8.49239 123.985 9.81908C124.385 12.4156 124.65 19.5875 122.124 21.049C121.297 21.1226 120.817 20.7974 120.405 20.0877C118.842 17.3997 118.46 7.67757 121.369 5.98005Z" fill="#F26641"/>
<path fill-rule="evenodd" clip-rule="evenodd" d="M60.3554 5.51067C59.8176 5.43751 58.9364 5.37532 58.4073 5.42756C55.9557 5.54725 53.5162 5.84254 51.1081 6.31098C51.4254 7.4941 52.0956 9.84664 52.5524 11.0026C52.9609 10.5929 53.4041 10.0666 53.8745 9.50793C55.14 8.0051 56.6028 6.26783 58.1204 5.93517C59.7495 5.57805 60.5904 9.28498 59.7417 10.2322C59.1707 10.8696 57.9109 11.1416 56.9771 11.3433C56.8405 11.3728 56.7109 11.4008 56.5914 11.4282C52.4609 11.8751 48.8601 14.6334 50.7739 19.2C51.3937 20.2828 52.3087 21.1169 53.5548 21.4129C55.9562 21.9831 59.1267 21.2218 60.234 18.8827C60.8949 20.8827 62.014 21.9894 64.3932 21.4525C65.3949 21.2264 66.9533 19.6477 67.0795 18.6111C66.9551 18.5975 66.7771 18.6872 66.5854 18.7839C66.2592 18.9484 65.8933 19.1329 65.684 18.8629C65.4221 18.5249 65.4352 17.7542 65.4446 17.2055C65.4465 17.0906 65.4483 16.9854 65.4474 16.8959C65.4425 16.4286 65.4476 15.9365 65.4528 15.4295C65.4955 11.3124 65.5482 6.2172 60.3554 5.51067ZM60.0324 10.8096C60.154 10.939 60.172 14.1787 60.1349 14.632C60.1072 14.9698 60.1215 15.401 60.137 15.8676C60.1775 17.0899 60.2261 18.5551 59.5496 19.2204C58.545 20.2085 57.5871 20.015 56.64 19.1656C55.4572 17.5854 55.4084 15.5765 56.058 13.7571C56.6297 12.1559 57.8906 11.6599 59.2792 11.1137C59.5272 11.0161 59.7794 10.9169 60.0324 10.8096Z" fill="#F26641"/>
<path d="M79.293 5.42618C79.4243 5.42077 79.5563 5.4189 79.6883 5.42048C86.84 5.52019 84.1647 14.0727 84.8387 18.4963C85.0066 19.598 86.2372 20.6201 86.2284 21.2679C86.2233 21.2728 86.2174 21.2779 86.2115 21.2826C85.9263 21.501 78.6308 21.4023 77.8131 21.3403C78.3961 20.119 79.4654 19.491 79.4654 17.9166C79.4639 16.0553 79.4654 14.21 79.4661 12.3462C79.4676 10.0507 79.5534 6.07441 76.0398 6.76543C75.3585 6.89933 74.9156 7.41048 74.5694 7.96319L74.5526 9.41766C74.5614 11.1851 74.3296 17.6619 74.7498 18.8996C75.0513 19.7856 75.7501 20.4802 76.1506 21.3232C74.9229 21.4285 73.2406 21.3873 71.9843 21.3864C70.6085 21.3853 68.9643 21.4269 67.6202 21.3342C68.3498 19.7871 69.2386 19.6023 69.213 17.6566C69.1756 14.8044 69.3039 11.9072 69.1448 9.06155C69.122 8.64613 67.7096 7.49244 67.7196 7.03872C68.363 6.67835 73.5442 5.65113 74.5628 5.4277L74.5782 7.15754C76.0831 5.77025 77.3144 5.53383 79.293 5.42618Z" fill="#F26641"/>
<path fill-rule="evenodd" clip-rule="evenodd" d="M15.7017 12.975C15.5608 8.39124 12.6913 5.44776 8.00039 5.42893C2.71424 5.61658 0.0587715 8.45148 0.000601235 13.6761C-0.0834126 21.2212 8.65726 24.3188 13.7225 18.8883C14.0589 18.5244 14.3693 18.1379 14.6515 17.7319C14.8247 17.4082 14.9142 17.2362 15.0335 16.8916C13.7441 17.9646 12.9952 18.3539 11.2798 18.4632C7.77048 18.6868 5.68729 16.2678 5.53688 12.9804L15.7017 12.975ZM7.84506 5.98914C10.8669 5.62055 11.7175 11.7174 8.21687 12.3872C7.2613 12.4509 6.40951 12.4388 5.45907 12.416C5.46222 10.3854 5.50072 6.85064 7.84506 5.98914Z" fill="#F26641"/>
<path d="M23.8163 5.42748C25.4941 5.33463 28.7756 5.80373 30.4272 6.31603C30.0336 7.46041 29.398 9.44457 28.9016 10.4618C27.6283 8.86812 25.9127 5.57264 23.3614 5.97623C21.9173 6.20464 21.8841 8.35545 22.7946 9.17402C25.553 11.6542 31.3571 12.0352 31.1096 16.8195C30.9255 21.0066 26.2385 21.725 22.8851 21.5767C21.2128 21.5136 18.4102 21.1334 16.8071 20.6703C17.2646 18.9528 17.5988 16.976 18.1195 15.3561C18.6699 15.8483 19.155 16.6315 19.6162 17.229C20.3745 18.2115 21.1757 19.1942 22.0858 20.0434C22.7437 20.6457 23.3312 21.0788 24.2432 21.0756C25.4081 21.0715 26.064 20.0764 25.9457 18.9608C25.5991 15.6908 20.8886 14.9514 18.8303 12.9232C17.936 12.0419 17.3735 11.2805 17.3243 9.99901C17.203 6.2133 20.8993 5.54804 23.8163 5.42748Z" fill="#F26641"/>
<path d="M110.91 0.934091L111.003 0.922259C111.173 1.03502 111.121 1.27686 111.122 1.5394L111.12 13.0869C111.12 14.7824 111.026 17.0783 111.254 18.7325C111.352 19.4435 112.389 20.5394 112.761 21.3234C111.759 21.4113 110.542 21.3854 109.527 21.3858L104.634 21.371C104.535 21.3646 104.454 21.3326 104.359 21.3026C104.246 20.7667 105.599 19.5046 105.728 18.6264C105.894 17.5166 105.883 5.17411 105.692 4.52068C105.459 3.72282 104.659 3.19233 104.171 2.53956C105.718 2.00733 109.168 1.33407 110.91 0.934091Z" fill="#F26641"/>
<path d="M74.6156 0.00542464C77.6085 -0.141392 79.8335 2.75217 82.5822 1.39286C82.6166 1.37598 82.687 1.46905 82.7098 1.49271C82.7692 2.08179 81.5819 3.39845 81.0956 3.71914C80.3601 4.20353 79.6634 4.16031 78.8442 3.99437C77.0115 3.56424 75.1363 1.69494 73.3403 1.88836C72.8152 1.94492 72.2799 2.88513 72.0027 3.32031C71.4453 2.91399 71.9521 2.25191 72.2322 1.78332C72.8204 0.799175 73.4819 0.27287 74.6156 0.00542464Z" fill="#F26641"/>
</g>
</svg>
